<?xml version="1.0" encoding="UTF-8"?>
<svg version="1.1" xmlns="http://www.w3.org/2000/svg" width="372" height="346">
<path d="M0 0 C1.16752686 -0.00382555 2.33505371 -0.00765109 3.53796017 -0.01159257 C6.76566665 -0.02010703 9.9932272 -0.01969606 13.22093749 -0.01541197 C16.70705719 -0.01294098 20.19315034 -0.02196356 23.67926025 -0.02944946 C30.50399232 -0.04218821 37.32868503 -0.04399118 44.15342699 -0.0416492 C49.70190993 -0.03986493 55.25038094 -0.04161803 60.79886246 -0.04587364 C61.98417203 -0.04676643 61.98417203 -0.04676643 63.19342724 -0.04767724 C64.79882692 -0.04888902 66.40422661 -0.05010315 68.00962628 -0.05131962 C83.05972639 -0.06219203 98.10980408 -0.06003411 113.15990545 -0.05393478 C126.92064343 -0.04876613 140.68131061 -0.06002021 154.44203459 -0.07903299 C168.5798915 -0.09841673 182.71771493 -0.10666644 196.85558522 -0.10290974 C204.78956948 -0.10099848 212.72349348 -0.10347794 220.65746689 -0.11762428 C227.41192818 -0.12954589 234.16629213 -0.13093426 240.92075478 -0.11883412 C244.36493487 -0.11295082 247.80893699 -0.1118306 251.25310516 -0.12383652 C254.99165557 -0.13428481 258.72972848 -0.1262179 262.46826172 -0.11352539 C264.09099292 -0.12458682 264.09099292 -0.12458682 265.74650657 -0.13587171 C275.77288456 -0.06432122 284.041662 2.15743027 291.3611145 9.26069641 C299.04810443 18.65204157 300.81235147 27.19819035 300.65408325 39.07319641 C300.64983841 40.2826593 300.64559357 41.49212219 300.64122009 42.73823547 C300.62450489 46.57928775 300.58686465 50.41980425 300.5486145 54.26069641 C300.53355847 56.87397005 300.51987168 59.48725197 300.50759888 62.10054016 C300.47462472 68.48743993 300.42449634 74.87402988 300.3611145 81.26069641 C299.20790207 81.26434204 298.05468964 81.26798767 296.86653137 81.27174377 C285.96512777 81.30878604 275.06400424 81.36665939 264.16281414 81.44459915 C258.55922512 81.4840023 252.95579157 81.51622594 247.3520813 81.5316925 C241.93780559 81.54690619 236.5239575 81.58143543 231.10987282 81.62900543 C229.05080711 81.64377069 226.99168034 81.65173462 224.93256187 81.65258026 C211.80401399 81.66338825 199.82574524 81.7272988 189.1423645 90.44038391 C182.32400386 97.40827 179.01729013 106.54259449 177.9236145 116.07319641 C178.40588142 125.99985708 182.24796555 135.34281037 189.3611145 142.26069641 C198.82508201 149.91101161 208.45304662 151.38134883 220.32571411 151.46601868 C221.19480408 151.47591827 222.06389404 151.48581787 222.95932007 151.49601746 C225.81067246 151.52741707 228.66204147 151.55230405 231.51345825 151.57710266 C233.49885981 151.59769082 235.48425717 151.61868777 237.46965027 151.64007568 C242.67932724 151.69510409 247.88904251 151.74459771 253.0987854 151.79292297 C258.42128888 151.84327894 263.74373719 151.89889123 269.06619263 151.95405579 C279.49778605 152.06140193 289.9294275 152.1628986 300.3611145 152.26069641 C300.43086984 159.94548848 300.48405472 167.63024739 300.51655102 175.31528473 C300.53215398 178.88444262 300.55329268 182.45338263 300.58743286 186.02241516 C300.62021985 189.47188434 300.63800783 192.92114498 300.64574623 196.37075806 C300.65392181 198.31603377 300.67730995 200.26122653 300.70100403 202.20637512 C300.70316024 213.63141315 298.02624809 221.34391715 290.1736145 229.88569641 C283.14423848 236.71855224 274.7110806 238.38785375 265.1920929 238.38095093 C264.12600287 238.38223256 264.12600287 238.38223256 263.03837568 238.38354009 C260.66310065 238.38518378 258.28789666 238.37969176 255.91262817 238.3742218 C254.20747886 238.37393966 252.50232942 238.37409818 250.79718018 238.37466431 C246.17158008 238.37495124 241.5460059 238.36907121 236.92041183 238.36209035 C232.08508037 238.3558396 227.24974832 238.35525165 222.41441345 238.35406494 C213.25954669 238.35095671 204.10469186 238.34275015 194.94983035 238.33271545 C184.5266979 238.32153856 174.10356487 238.31603989 163.68042791 238.31102002 C142.24065011 238.30056713 120.80088306 238.2829775 99.3611145 238.26069641 C100.40896401 235.10219444 101.47003402 231.95278932 102.5798645 228.81538391 C111.06876011 204.43568983 110.38727059 180.47207912 100.056427 156.76069641 C97.35479873 151.18314126 94.04120264 146.23302923 90.3611145 141.26069641 C89.76814575 140.40991516 89.175177 139.55913391 88.5642395 138.68257141 C75.36933638 120.7510364 53.37417674 109.79349563 31.8611145 106.01069641 C7.98695377 102.80072522 -13.45347114 108.84750531 -33.6388855 121.26069641 C-34.96723471 121.93723954 -36.29965316 122.6059606 -37.6388855 123.26069641 C-37.70858828 111.19463376 -37.76179951 99.12861951 -37.79432201 87.06239605 C-37.8099361 81.45874576 -37.83109632 75.85523387 -37.86520386 70.25166321 C-37.89794945 64.83757999 -37.91577049 59.42362938 -37.92351723 54.00945473 C-37.92903353 51.95032987 -37.93980515 49.89121175 -37.95607567 47.83214378 C-38.16829307 19.84671193 -38.16829307 19.84671193 -28.6388855 9.26069641 C-19.50172966 1.37499921 -11.7264321 -0.04079785 0 0 Z " fill="#278EDF" transform="translate(67.63888549804688,63.73930358886719)"/>
<path d="M0 0 C0.91394531 0.41894531 1.82789062 0.83789062 2.76953125 1.26953125 C21.69462159 10.66439012 34.95269674 28.57091502 41.7421875 48.14453125 C48.31986012 67.96850673 46.37484818 89.46218027 37.375 108.125 C27.05110302 128.31194924 10.81270043 142.25374777 -10.5078125 149.96875 C-32.28541393 156.39971955 -54.04005762 154.89535807 -74.26953125 144.28515625 C-94.36619816 132.62765908 -107.35504748 115.09050834 -114.4375 93.125 C-119.90864269 70.62462962 -115.55253933 48.67374309 -104 29 C-101.90686497 25.72421894 -99.62532917 22.86353471 -97 20 C-96.12601563 19.03449219 -95.25203125 18.06898438 -94.3515625 17.07421875 C-69.91726349 -9.07146381 -32.08529262 -15.27662637 0 0 Z M-37 34 C-37 35.32 -37 36.64 -37 38 C-38.051875 38.11214844 -38.051875 38.11214844 -39.125 38.2265625 C-46.13679549 39.1983059 -50.99375705 40.88332522 -56 46 C-59.37572608 50.74711479 -59.74042243 55.35047543 -59 61 C-57.27652466 65.80758912 -55.11102532 68.07089446 -51 71 C-48.76306075 71.99652628 -46.48893145 72.91311584 -44.1875 73.75 C-42.145625 74.4925 -40.10375 75.235 -38 76 C-37.67 81.94 -37.34 87.88 -37 94 C-43.41741709 91.7816336 -49.23686358 89.58595155 -55 86 C-56.00894372 86.92786789 -57.00690907 87.86768433 -58 88.8125 C-58.8353125 89.59560547 -58.8353125 89.59560547 -59.6875 90.39453125 C-61.316465 92.04148967 -61.316465 92.04148967 -61 95 C-53.44593101 99.01880768 -46.55201116 102.67296379 -38 104 C-37.67 105.98 -37.34 107.96 -37 110 C-35.35 110 -33.7 110 -32 110 C-32 108.02 -32 106.04 -32 104 C-30.88625 103.938125 -29.7725 103.87625 -28.625 103.8125 C-21.95115135 102.95748736 -16.08005869 100.18152497 -11.4375 95.3125 C-8.90105543 89.46764947 -8.34713502 84.34263316 -10.0625 78.1875 C-14.60736775 70.71045951 -20.85345868 68.38273022 -29 66 C-29.66 66 -30.32 66 -31 66 C-31 60.06 -31 54.12 -31 48 C-27.97265625 49.04166667 -24.9453125 50.08333333 -21.91796875 51.125 C-19.02879198 52.14361512 -19.02879198 52.14361512 -16 52 C-12.66862283 48.56644853 -12.66862283 48.56644853 -12 44 C-14.03876949 43.18025737 -16.08116075 42.3695193 -18.125 41.5625 C-19.26195312 41.11003906 -20.39890625 40.65757812 -21.5703125 40.19140625 C-24.74206741 39.08960073 -27.67942748 38.43904226 -31 38 C-31.33 36.68 -31.66 35.36 -32 34 C-33.65 34 -35.3 34 -37 34 Z " fill="#33A1E7" transform="translate(121,187)"/>
<path d="M0 0 C8.78880763 6.15670345 13.27949437 13.77247187 15.375 24.25 C15.375 29.86 15.375 35.47 15.375 41.25 C-58.215 41.25 -131.805 41.25 -207.625 41.25 C-203.58053919 39.22776959 -199.68369174 38.11661762 -195.33325195 37.02954102 C-194.49268659 36.81556671 -193.65212122 36.60159241 -192.78608418 36.38113403 C-189.97954893 35.66778269 -187.17141784 34.96092513 -184.36328125 34.25390625 C-182.36905576 33.74808958 -180.37494808 33.24180823 -178.38095093 32.73509216 C-174.12058243 31.653215 -169.8595607 30.57396568 -165.59799194 29.49682617 C-155.56644154 26.9610218 -145.53823922 24.41203774 -135.51016426 21.86252975 C-133.25250676 21.28856591 -130.99480975 20.71475743 -128.7370739 20.14110184 C-104.56848181 13.99932645 -80.43313102 7.73302481 -56.30960083 1.41687107 C-53.42245252 0.66110908 -50.53507662 -0.09378133 -47.64769363 -0.84864616 C-45.7043688 -1.35729323 -43.76152297 -1.8677693 -41.81869507 -2.37831116 C-40.6702713 -2.6788591 -39.52184753 -2.97940704 -38.33862305 -3.2890625 C-37.34847702 -3.54896973 -36.35833099 -3.80887695 -35.33818054 -4.07666016 C-22.53808845 -7.25330538 -11.25065135 -6.96646292 0 0 Z " fill="#268CDB" transform="translate(312.625,11.75)"/>
<path d="M0 0 C0.90810425 -0.00043808 1.8162085 -0.00087616 2.75183105 -0.00132751 C5.73329677 0.00075127 8.71418997 0.02403933 11.69555664 0.04760742 C13.77063184 0.05320661 15.84571103 0.05747518 17.92079163 0.06047058 C23.36735085 0.07189388 28.81366791 0.1013395 34.26013184 0.13458252 C40.80304206 0.17075032 47.3460335 0.18445652 53.8890152 0.20194244 C63.81558255 0.23097823 73.74161917 0.28848326 83.66821289 0.34057617 C83.66821289 16.51057617 83.66821289 32.68057617 83.66821289 49.34057617 C60.52988644 49.50101141 60.52988644 49.50101141 50.64477539 49.53588867 C43.90734206 49.55977298 37.17012678 49.58798738 30.43286133 49.64233398 C24.99932978 49.68588819 19.56603216 49.70973373 14.13233948 49.72008514 C12.06234557 49.72745929 9.99236405 49.74185929 7.92247009 49.7634964 C5.01647566 49.79265734 2.11144016 49.79652684 -0.79467773 49.79467773 C-1.64488495 49.80905884 -2.49509216 49.82343994 -3.37106323 49.83825684 C-10.55713209 49.78898341 -15.65141608 47.65544206 -21.08178711 42.96557617 C-26.84297241 36.24419332 -28.7668423 31.29648084 -28.67163086 22.54760742 C-27.87515556 15.03144392 -24.11696478 9.33573509 -18.37084961 4.59448242 C-12.12649553 0.75456353 -7.20699128 -0.09205187 0 0 Z M-7.58178711 21.02807617 C-9.61908247 23.20704603 -9.61908247 23.20704603 -9.20678711 25.96557617 C-8.46710798 28.48462742 -8.46710798 28.48462742 -6.33178711 30.34057617 C-2.73499645 30.01731064 -2.73499645 30.01731064 0.66821289 29.34057617 C0.99821289 27.03057617 1.32821289 24.72057617 1.66821289 22.34057617 C-1.75587726 19.50684639 -3.64987384 18.07914122 -7.58178711 21.02807617 Z " fill="#1979D4" transform="translate(284.331787109375,154.659423828125)"/>
<path d="M0 0 C8 3 8 3 11 6 C11.5625 8.875 11.5625 8.875 11 12 C7.27551527 15.89771657 5.37380583 16.92523883 0 18 C0 12.06 0 6.12 0 0 Z " fill="#2C8DCC" transform="translate(89,264)"/>
<path d="M0 0 C0 5.61 0 11.22 0 17 C-7.39503253 14.69662921 -7.39503253 14.69662921 -10.0625 11.625 C-11.19569954 8.45204129 -11.2798173 7.11955468 -10 4 C-6.37850602 0.27790897 -5.41537745 0 0 0 Z " fill="#2D8BC5" transform="translate(84,236)"/>
</svg>
