<?xml version="1.0" encoding="UTF-8"?>
<svg version="1.1" xmlns="http://www.w3.org/2000/svg" width="988" height="220">
<path d="M0 0 C1.09671519 -0.00573832 1.09671519 -0.00573832 2.21558625 -0.01159257 C4.65438278 -0.02187384 7.09294173 -0.01793977 9.53175354 -0.01396179 C11.2848075 -0.01831095 13.03785957 -0.02349478 14.79090881 -0.02944946 C19.5450256 -0.0428283 24.29906282 -0.0434194 29.05319476 -0.04088616 C33.02439706 -0.03981577 36.9955833 -0.04470154 40.96678215 -0.04949158 C50.33627053 -0.06058276 59.70571881 -0.06102626 69.07521057 -0.05497742 C78.73643053 -0.0489361 88.39750491 -0.06125356 98.05870003 -0.08254749 C106.35865883 -0.10016753 114.65857131 -0.10616423 122.95854813 -0.10290974 C127.91349087 -0.1010975 132.86832975 -0.10372728 137.82325554 -0.11762428 C142.48297804 -0.13020465 147.14247365 -0.12825652 151.80219269 -0.11521339 C153.51018157 -0.11284858 155.21818644 -0.11557889 156.926157 -0.12383652 C159.26206878 -0.13431391 161.59722063 -0.12619594 163.93310547 -0.11352539 C165.23886756 -0.11369313 166.54462965 -0.11386087 167.88996029 -0.1140337 C174.27960581 0.54375123 178.71156314 2.7881888 182.90504456 7.76069641 C183.57277893 8.53413391 184.24051331 9.30757141 184.92848206 10.10444641 C188.03540513 14.28742577 187.66099676 18.44859692 187.62770081 23.42866516 C187.62557838 24.62088432 187.62557838 24.62088432 187.62341309 25.83718872 C187.61781833 28.37422967 187.60526683 30.91118217 187.59254456 33.44819641 C187.58752888 35.16889826 187.58296609 36.8896015 187.57887268 38.61030579 C187.56785063 42.82713671 187.55058962 47.04390157 187.53004456 51.26069641 C186.79612488 51.26434204 186.0622052 51.26798767 185.30604553 51.27174377 C178.36227488 51.30973703 171.4188864 51.36671761 164.47545624 51.44459915 C160.90639508 51.48397357 157.33757692 51.51621058 153.76832581 51.5316925 C150.31855567 51.54692621 146.86945403 51.58148778 143.41998291 51.62900543 C141.47488094 51.65088732 139.52958999 51.65316437 137.58436584 51.65504456 C130.38666441 51.77325542 125.69180401 52.50162421 119.53004456 56.26069641 C118.54004456 56.59069641 117.55004456 56.92069641 116.53004456 57.26069641 C115.42752725 59.42691509 115.42752725 59.42691509 114.53004456 62.26069641 C114.25805237 62.84077454 113.98606018 63.42085266 113.70582581 64.01850891 C111.21896748 69.5773687 110.99376002 74.35911557 112.53004456 80.26069641 C114.78155867 85.30062415 117.79416819 89.32896342 122.53004456 92.26069641 C129.19421656 94.79521017 135.83891041 94.60857316 142.90113831 94.67475891 C144.81733727 94.70380814 144.81733727 94.70380814 146.77224731 94.73344421 C150.14724986 94.78292648 153.52214842 94.82426713 156.89729309 94.86158752 C160.34984421 94.90179383 163.80223433 94.95280978 167.25465393 95.00288391 C174.0130135 95.09872881 180.77144388 95.18383376 187.53004456 95.26069641 C187.60442032 100.70500224 187.65875322 106.14900971 187.69483948 111.59370422 C187.70988926 113.4443426 187.73033389 115.29494552 187.75636292 117.14546204 C187.79291435 119.81156686 187.8098091 122.47719849 187.82301331 125.14350891 C187.83849716 125.96561859 187.85398102 126.78772827 187.86993408 127.63475037 C187.87178972 134.02532246 186.4804998 138.11019448 182.09254456 142.94819641 C176.99616156 147.54737131 173.78640947 149.38884295 166.8730011 149.38095093 C165.9419455 149.38232559 165.01088989 149.38370026 164.05162048 149.38511658 C163.03742035 149.3815213 162.02322021 149.37792603 160.97828674 149.3742218 C159.36807144 149.37444084 159.36807144 149.37444084 157.72532654 149.37466431 C154.17583701 149.37396744 150.62639992 149.36618555 147.07691956 149.35835266 C144.61640959 149.35648768 142.15589926 149.35506415 139.69538879 149.35406494 C133.2181038 149.35024608 126.74084121 149.34042114 120.26356506 149.32936096 C113.65447798 149.31913331 107.04538727 149.31456441 100.43629456 149.30952454 C87.46753499 149.29879834 74.49879097 149.28192156 61.53004456 149.26069641 C61.80719299 148.45245422 62.08434143 147.64421204 62.36988831 146.81147766 C62.73211487 145.74284485 63.09434143 144.67421204 63.46754456 143.57319641 C63.82719299 142.51745422 64.18684143 141.46171204 64.55738831 140.37397766 C69.38668142 124.91636076 66.97948525 108.75221298 59.78004456 94.51069641 C51.95287664 81.0479676 40.48070857 72.4994561 25.53004456 68.26069641 C9.40998541 64.63592313 -5.7885937 67.04334863 -20.16184998 75.34907532 C-21.25352478 75.97991028 -22.34519958 76.61074524 -23.46995544 77.26069641 C-23.56294404 69.31512626 -23.63386544 61.36978633 -23.67720413 53.42380524 C-23.69801254 49.73349687 -23.72620464 46.04356283 -23.77171326 42.35346985 C-23.81541488 38.7872758 -23.83914321 35.2214401 -23.84946442 31.65499878 C-23.86037039 29.64319529 -23.89155736 27.63153445 -23.92314148 25.61994934 C-23.92504372 17.80832113 -23.58283225 11.77084077 -18.09306335 5.75080872 C-12.66983835 0.8090344 -7.10894069 0.01117964 0 0 Z " fill="#2991E1" transform="translate(44.46995544433594,42.73930358886719)"/>
<path d="M0 0 C1.12341797 0.79664062 1.12341797 0.79664062 2.26953125 1.609375 C2.96691406 2.09921875 3.66429688 2.5890625 4.3828125 3.09375 C12.90556245 9.77955773 18.76940053 20.13468941 21.26953125 30.609375 C21.49640625 31.5375 21.72328125 32.465625 21.95703125 33.421875 C23.52460822 49.4111601 20.30216813 63.24859392 10.01953125 75.859375 C1.22024897 85.27479959 -11.14433631 92.03376428 -24.11328125 92.8125 C-39.94414836 93.01079896 -52.74640295 89.11830474 -64.40625 78.0625 C-75.78582621 66.05178763 -79.27761273 53.29864682 -79.00390625 37.1953125 C-78.48382228 24.64635573 -71.87991885 12.70099515 -62.71875 4.23046875 C-44.25906 -10.82016259 -20.24975517 -13.2163184 0 0 Z M-29.73046875 17.609375 C-29.73046875 18.599375 -29.73046875 19.589375 -29.73046875 20.609375 C-31.55578125 20.91875 -31.55578125 20.91875 -33.41796875 21.234375 C-38.32949989 22.48188646 -40.11521795 24.27786586 -42.73046875 28.609375 C-43.36899503 32.65337478 -43.18817036 34.73377193 -41.29296875 38.359375 C-37.70422909 41.51046348 -34.31756809 42.32768548 -29.73046875 43.609375 C-29.73046875 47.569375 -29.73046875 51.529375 -29.73046875 55.609375 C-31.9765625 54.56770833 -34.22265625 53.52604167 -36.46875 52.484375 C-38.79260834 51.42896833 -38.79260834 51.42896833 -41.73046875 51.609375 C-43.43579198 53.54947022 -43.43579198 53.54947022 -44.73046875 55.609375 C-40.07572521 58.45921798 -36.02907681 60.3117567 -30.73046875 61.609375 C-30.40046875 62.929375 -30.07046875 64.249375 -29.73046875 65.609375 C-28.74046875 65.609375 -27.75046875 65.609375 -26.73046875 65.609375 C-26.40046875 64.619375 -26.07046875 63.629375 -25.73046875 62.609375 C-23.26709249 61.44832132 -20.75536095 60.63816523 -18.17578125 59.76953125 C-15.37185532 58.43923412 -14.31707179 57.24534525 -12.73046875 54.609375 C-11.59110088 50.86573771 -11.5415339 49.1165159 -12.91796875 45.421875 C-14.74026783 42.59416954 -15.77809161 41.16757405 -18.73046875 39.609375 C-22.38321344 38.88456416 -22.38321344 38.88456416 -25.73046875 38.609375 C-25.73046875 34.649375 -25.73046875 30.689375 -25.73046875 26.609375 C-22.76046875 27.599375 -19.79046875 28.589375 -16.73046875 29.609375 C-15.74046875 28.619375 -14.75046875 27.629375 -13.73046875 26.609375 C-14.06046875 25.619375 -14.39046875 24.629375 -14.73046875 23.609375 C-16.98984515 22.58005657 -16.98984515 22.58005657 -19.66796875 21.921875 C-20.56386719 21.67050781 -21.45976563 21.41914063 -22.3828125 21.16015625 C-24.65309065 20.53323925 -24.65309065 20.53323925 -26.73046875 20.609375 C-26.73046875 19.619375 -26.73046875 18.629375 -26.73046875 17.609375 C-27.72046875 17.609375 -28.71046875 17.609375 -29.73046875 17.609375 Z " fill="#39A6EB" transform="translate(83.73046875,123.390625)"/>
<path d="M0 0 C1.60651423 3.21302847 2.4589982 5.43593053 3.22094727 8.84448242 C3.43779678 9.8019487 3.6546463 10.75941498 3.87806702 11.74589539 C4.21879494 13.2851342 4.21879494 13.2851342 4.56640625 14.85546875 C4.80536118 15.91284744 5.0443161 16.97022614 5.29051208 18.05964661 C6.05275667 21.43451337 6.80821035 24.81084708 7.5625 28.1875 C8.32089381 31.5747366 9.08079902 34.96160206 9.84519958 38.3474884 C10.32074045 40.45448709 10.79271686 42.56229387 11.26087952 44.67094421 C11.47457687 45.61895401 11.68827423 46.56696381 11.90844727 47.54370117 C12.09560806 48.38213058 12.28276886 49.22056 12.4756012 50.08439636 C12.82817171 51.99327552 12.82817171 51.99327552 14 53 C14.098004 52.3927861 14.196008 51.7855722 14.29698181 51.15995789 C15.31600423 44.8493964 16.33850291 38.53940525 17.36303711 32.22973633 C17.74511778 29.87376163 18.12630694 27.51764218 18.5065918 25.16137695 C19.05283961 21.77777414 19.60227423 18.39470209 20.15234375 15.01171875 C20.40708717 13.42722176 20.40708717 13.42722176 20.66697693 11.81071472 C20.82706741 10.82992447 20.9871579 9.84913422 21.15209961 8.83862305 C21.29199814 7.97480515 21.43189667 7.11098724 21.57603455 6.22099304 C22 4 22 4 23 1 C31.58 1 40.16 1 49 1 C48.34306872 6.91238155 47.60495118 12.36731534 46.23413086 18.09008789 C46.05842056 18.84242706 45.88271027 19.59476624 45.70167542 20.36990356 C45.12769365 22.82201667 44.54634762 25.27231716 43.96484375 27.72265625 C43.5622496 29.43604437 43.16012173 31.14954211 42.75843811 32.86314392 C41.70600653 37.34728391 40.64729386 41.82991749 39.58721924 46.31225586 C38.50418229 50.89672227 37.42715718 55.48260028 36.34960938 60.06835938 C34.23891879 69.04695882 32.12102866 78.0238371 30 87 C19.77 87 9.54 87 -1 87 C-3.90211238 76.429392 -6.4187536 65.84707331 -8.6875 55.125 C-9.29133664 52.2725124 -9.90000307 49.42111951 -10.51171875 46.5703125 C-10.77428467 45.33039551 -11.03685059 44.09047852 -11.30737305 42.81298828 C-11.71493734 40.11254861 -11.71493734 40.11254861 -13 39 C-18.445 62.76 -18.445 62.76 -24 87 C-34.23 87 -44.46 87 -55 87 C-57.83614313 76.54293075 -60.46696516 66.06313803 -62.92578125 55.51171875 C-63.28117612 53.99094972 -63.63657891 52.47018255 -63.99198914 50.94941711 C-64.72737626 47.79946761 -65.4606019 44.64902341 -66.19262695 41.49829102 C-67.13225591 37.45616798 -68.08065623 33.41615403 -69.03095722 29.37652874 C-69.76389996 26.25418221 -70.4906774 23.13042481 -71.21571922 20.00623512 C-71.56311059 18.51411443 -71.91281065 17.02252929 -72.26485634 15.53149986 C-72.75251655 13.46345251 -73.2314725 11.39357669 -73.70825195 9.32299805 C-73.98264603 8.14690475 -74.2570401 6.97081146 -74.53974915 5.75907898 C-75 3 -75 3 -74 1 C-65.42 1 -56.84 1 -48 1 C-47.43410156 4.49078125 -46.86820313 7.9815625 -46.28515625 11.578125 C-45.73616604 14.95726044 -45.18659285 18.33630059 -44.63696289 21.71533203 C-44.25516764 24.06451677 -43.87397893 26.41380017 -43.4934082 28.76318359 C-42.94641844 32.1392586 -42.39725146 35.51497329 -41.84765625 38.890625 C-41.6778273 39.94179504 -41.50799835 40.99296509 -41.33302307 42.07598877 C-41.09288734 43.54706085 -41.09288734 43.54706085 -40.84790039 45.04785156 C-40.70800186 45.90944885 -40.56810333 46.77104614 -40.42396545 47.65875244 C-40.0379428 49.79046998 -39.52542605 51.89829579 -39 54 C-35.04 36.51 -31.08 19.02 -27 1 C-18.09 0.67 -9.18 0.34 0 0 Z " fill="#222222" transform="translate(650,73)"/>
<path d="M0 0 C10.15240486 7.35681511 16.1681068 16.91919779 18.625 29.1875 C20.39019464 42.30764861 18.07115821 54.00016492 10.6875 65 C3.3211409 74.51374792 -5.88233337 80.22515598 -17.75 82.3125 C-32.40252987 83.81467389 -44.21319131 80.71085611 -55.91015625 71.63671875 C-62.80320417 65.43430377 -68.58416741 55.6110684 -69.75 46.3125 C-70.62379221 29.72725166 -68.01406998 17.19163884 -56.75 4.3125 C-39.8780064 -8.84054525 -18.57866754 -11.32383981 0 0 Z M-40.6875 22.1875 C-45.28139674 29.1479496 -45.53699386 36.18994606 -44.75 44.3125 C-43.21686732 50.04724495 -40.92318613 54.15811821 -35.75 57.3125 C-31.05928365 59.99290934 -26.00102408 59.8302066 -20.75 59.3125 C-15.25079049 57.68978244 -11.69854984 55.23033678 -8.75 50.3125 C-5.09147048 43.03798201 -4.96948864 35.71827933 -7.5078125 28.01171875 C-10.14451536 22.12899094 -13.78783264 18.60844822 -19.75 16 C-27.59082748 14.2031437 -35.19634373 16.0140107 -40.6875 22.1875 Z " fill="#222222" transform="translate(372.75,78.6875)"/>
<path d="M0 0 C7.59 0 15.18 0 23 0 C23.495 15.345 23.495 15.345 24 31 C24.99 29.35 25.98 27.7 27 26 C28.90234375 24.453125 28.90234375 24.453125 30.9375 23.25 C31.60652344 22.84265625 32.27554688 22.4353125 32.96484375 22.015625 C38.53429552 19.23624408 45.13003223 19.16971601 51.1484375 20.4609375 C58.78172889 23.02548204 65.04580671 27.76808268 68.96875 34.83203125 C74.00417665 45.41787136 74.8631121 58.11671582 71.875 69.5 C68.59672032 78.53450785 63.14134821 84.95716127 54.9375 89.8125 C47.88840565 92.55381447 38.61238642 92.09437683 31.72265625 89.06640625 C28.63266869 87.15355681 26.40745206 84.70838357 24 82 C23.67 84.64 23.34 87.28 23 90 C15.41 90 7.82 90 0 90 C0 60.3 0 30.6 0 0 Z M27 45 C24.21975207 48.85161736 22.6170366 52.38740463 23.0625 57.1875 C24.41225098 62.6764873 26.19805071 65.96898236 31 69 C35.77153538 69.86120395 39.79427124 69.70334178 44 67.25 C47.94799935 62.80850073 48.38685847 59.2805875 48.25 53.47265625 C47.78770354 48.90025533 46.27210052 46.09037188 42.8125 43.125 C37.26031509 40.90412604 31.62553059 40.88841725 27 45 Z " fill="#232323" transform="translate(458,70)"/>
<path d="M0 0 C1.70703125 1.5703125 1.70703125 1.5703125 3.70703125 4.5703125 C4.03703125 1.9303125 4.36703125 -0.7096875 4.70703125 -3.4296875 C12.29703125 -3.4296875 19.88703125 -3.4296875 27.70703125 -3.4296875 C27.70703125 19.0103125 27.70703125 41.4503125 27.70703125 64.5703125 C20.11703125 64.5703125 12.52703125 64.5703125 4.70703125 64.5703125 C4.21203125 60.6103125 4.21203125 60.6103125 3.70703125 56.5703125 C2.98515625 57.3334375 2.26328125 58.0965625 1.51953125 58.8828125 C-5.11200179 65.21961073 -10.96942655 66.00639481 -19.90234375 65.90625 C-27.01919553 65.20112413 -32.27516999 61.99329934 -37.16796875 56.8828125 C-45.06554407 47.04809606 -46.3764837 34.76742208 -45.29296875 22.5703125 C-43.56587749 13.10252306 -40.03575953 4.66808431 -32.015625 -1.0546875 C-21.67981201 -7.10827514 -9.79867748 -7.23538708 0 0 Z M-17.29296875 19.5703125 C-20.60895556 24.37277616 -21.04295709 28.91499505 -20.29296875 34.5703125 C-18.71045442 38.84310119 -17.14056076 41.1741253 -13.29296875 43.5703125 C-9.2275525 44.37534542 -5.05340454 44.52285291 -1.34375 42.515625 C0.80391812 40.75796925 2.46043119 39.06351263 3.70703125 36.5703125 C4.53605259 28.44476085 4.53605259 28.44476085 1.95703125 20.9453125 C-1.55629556 17.23680087 -3.07410368 16.66704782 -8.23046875 16.2578125 C-12.02073647 16.37757932 -14.34452809 17.04307765 -17.29296875 19.5703125 Z " fill="#202020" transform="translate(751.29296875,95.4296875)"/>
<path d="M0 0 C5.66531819 5.34614534 8.89377079 12.09574751 10.6640625 19.5703125 C10.6640625 23.8603125 10.6640625 28.1503125 10.6640625 32.5703125 C-4.5159375 32.5703125 -19.6959375 32.5703125 -35.3359375 32.5703125 C-32.65275967 41.17677944 -32.65275967 41.17677944 -29.3359375 42.5703125 C-25.28622075 42.97735062 -25.28622075 42.97735062 -21.3359375 42.5703125 C-20.75859863 41.9095874 -20.18125977 41.2488623 -19.58642578 40.56811523 C-16.65873464 37.96914619 -15.12408299 38.10387827 -11.2578125 38.1796875 C-10.09765625 38.19257813 -8.9375 38.20546875 -7.7421875 38.21875 C-6.535625 38.25226563 -5.3290625 38.28578125 -4.0859375 38.3203125 C-2.86390625 38.33835938 -1.641875 38.35640625 -0.3828125 38.375 C2.63360328 38.4221315 5.64843741 38.48791837 8.6640625 38.5703125 C7.81177911 46.80574855 4.32729297 51.25739189 -1.5859375 56.8203125 C-10.51349158 63.87751508 -20.17858831 64.68238497 -31.19726562 63.83642578 C-39.55422315 62.79657604 -46.13706978 58.84805419 -51.71875 52.67578125 C-58.83356383 43.41277484 -60.20221081 32.98311963 -59.3359375 21.5703125 C-57.81484132 12.59712329 -53.58746052 4.85179185 -46.3984375 -0.8046875 C-32.97314668 -10.03617319 -13.11247079 -9.99900741 0 0 Z M-34.3359375 17.5703125 C-34.6659375 19.2203125 -34.9959375 20.8703125 -35.3359375 22.5703125 C-28.4059375 22.5703125 -21.4759375 22.5703125 -14.3359375 22.5703125 C-13.86318314 17.68735733 -13.86318314 17.68735733 -16.2734375 14.7578125 C-19.85030367 12.20290809 -21.81131836 11.83066447 -26.11328125 12.08203125 C-30.01186947 12.93848736 -31.6860627 14.58920336 -34.3359375 17.5703125 Z " fill="#222222" transform="translate(923.3359375,97.4296875)"/>
<path d="M0 0 C7.92 0 15.84 0 24 0 C24 5.28 24 10.56 24 16 C27.96 16 31.92 16 36 16 C36 22.6 36 29.2 36 36 C32.04 36 28.08 36 24 36 C24.08670905 40.10522522 24.19356706 44.20819147 24.3125 48.3125 C24.34633789 50.06336914 24.34633789 50.06336914 24.38085938 51.84960938 C24.41630859 52.96787109 24.45175781 54.08613281 24.48828125 55.23828125 C24.51446533 56.26993408 24.54064941 57.30158691 24.56762695 58.36450195 C24.8343127 60.95487363 24.8343127 60.95487363 26.03198242 62.79760742 C28.76522817 64.65288048 28.76522817 64.65288048 36 65 C36 71.6 36 78.2 36 85 C15.59241379 85.48206897 15.59241379 85.48206897 6.6875 79.9375 C-0.96349187 71.57478796 -0.50947241 61.53295163 -0.25 50.875 C-0.22989039 49.42710823 -0.21164755 47.97918927 -0.1953125 46.53125 C-0.15170153 43.02025873 -0.0829257 39.5103088 0 36 C-2.97 36 -5.94 36 -9 36 C-9 29.4 -9 22.8 -9 16 C-6.03 16 -3.06 16 0 16 C0 10.72 0 5.44 0 0 Z " fill="#1D1D1D" transform="translate(948,75)"/>
<path d="M0 0 C5.15397945 3.03678457 8.8332024 6.99036968 11.5625 12.3125 C12.5625 16.3125 12.5625 16.3125 12.5625 27.3125 C-32.3175 27.3125 -77.1975 27.3125 -123.4375 27.3125 C-121.27414704 25.14914704 -120.40332134 24.86428393 -117.52363586 24.13635254 C-116.70641556 23.92613968 -115.88919525 23.71592682 -115.04721069 23.49934387 C-114.14902618 23.27590805 -113.25084167 23.05247223 -112.32543945 22.82226562 C-111.38054153 22.58134689 -110.43564362 22.34042816 -109.46211243 22.09220886 C-106.32663088 21.29447745 -103.1887466 20.5066491 -100.05078125 19.71875 C-97.87306274 19.16653265 -95.69550839 18.6136675 -93.51811218 18.06018066 C-87.77331071 16.60158429 -82.02646406 15.15121369 -76.27911377 13.70269775 C-69.31428588 11.94586175 -62.35173926 10.18001245 -55.3890028 8.41490936 C-49.96696377 7.04048161 -44.54455211 5.6675911 -39.1209259 4.29943848 C-38.11953583 4.04644485 -37.11814575 3.79345123 -36.08641052 3.53279114 C-34.22630287 3.06288047 -32.36599248 2.59377119 -30.50543213 2.12565613 C-26.82524273 1.1950594 -23.15963278 0.24603573 -19.51676941 -0.82214355 C-13.13014944 -2.6169533 -6.09825902 -2.85278405 0 0 Z " fill="#2C92E1" transform="translate(194.4375,8.6875)"/>
<path d="M0 0 C7.92 0 15.84 0 24 0 C24.33 3.63 24.66 7.26 25 11 C25.99 9.9275 26.98 8.855 28 7.75 C34.11376491 1.6732135 38.2787065 0 47 0 C47 8.25 47 16.5 47 25 C44.97875 25.268125 42.9575 25.53625 40.875 25.8125 C34.01402706 26.79159096 34.01402706 26.79159096 28 30 C25.39176885 35.05534365 24.60394898 38.92334086 24.48828125 44.68359375 C24.47033005 45.38396255 24.45237885 46.08433136 24.43388367 46.80592346 C24.38022445 49.01638989 24.34603068 51.22664612 24.3125 53.4375 C24.27928743 54.94729461 24.24479419 56.45706163 24.20898438 57.96679688 C24.12214003 61.64455397 24.06170016 65.3213938 24 69 C16.08 69 8.16 69 0 69 C0 46.23 0 23.46 0 0 Z " fill="#1F1F1F" transform="translate(402,91)"/>
<path d="M0 0 C7.92 0 15.84 0 24 0 C24 29.7 24 59.4 24 90 C16.08 90 8.16 90 0 90 C0 60.3 0 30.6 0 0 Z " fill="#1C1C1C" transform="translate(793,70)"/>
<path d="M0 0 C7.59 0 15.18 0 23 0 C23 29.7 23 59.4 23 90 C15.41 90 7.82 90 0 90 C0 60.3 0 30.6 0 0 Z " fill="#1C1C1C" transform="translate(831,70)"/>
<path d="M0 0 C1.29966202 0.00565979 2.59932404 0.01131958 3.93836975 0.01715088 C7.37288888 0.03233297 10.80671798 0.07154806 14.2409668 0.1159668 C17.75364686 0.15708172 21.2664431 0.17541634 24.77929688 0.1953125 C31.65685692 0.23592401 38.53252882 0.3142305 45.41015625 0.390625 C45.41015625 10.620625 45.41015625 20.850625 45.41015625 31.390625 C37.86170418 31.49572412 30.31592866 31.59585814 22.76737976 31.64937592 C19.25166253 31.67569022 15.73655611 31.71080302 12.22119141 31.76782227 C8.17995571 31.8329548 4.13935854 31.85688118 0.09765625 31.87890625 C-1.15160645 31.90471268 -2.40086914 31.9305191 -3.68798828 31.95710754 C-10.96504278 31.95943532 -16.01878257 31.2999659 -21.58984375 26.390625 C-25.0215292 22.63721904 -25.10856035 18.78968971 -24.93359375 13.890625 C-24.20853638 8.61748048 -22.04144752 5.51488775 -17.78686523 2.21972656 C-12.26646267 -0.77202159 -6.10640979 -0.10049847 0 0 Z M-10.58984375 12.390625 C-11.24984375 13.050625 -11.90984375 13.710625 -12.58984375 14.390625 C-12.50412714 16.48353657 -12.50412714 16.48353657 -11.58984375 18.390625 C-10.59984375 18.720625 -9.60984375 19.050625 -8.58984375 19.390625 C-7.59984375 18.400625 -6.60984375 17.410625 -5.58984375 16.390625 C-5.91984375 15.400625 -6.24984375 14.410625 -6.58984375 13.390625 C-8.49693218 12.47634161 -8.49693218 12.47634161 -10.58984375 12.390625 Z " fill="#1F7ED8" transform="translate(186.58984375,99.609375)"/>
<path d="M0 0 C7.59 0 15.18 0 23 0 C23 22.44 23 44.88 23 68 C15.41 68 7.82 68 0 68 C0 45.56 0 23.12 0 0 Z " fill="#1C1C1C" transform="translate(541,92)"/>
<path d="M0 0 C2.71563592 1.40916402 4.56848032 2.94426818 6.296875 5.46484375 C7.02787782 9.57673463 6.93149 13.24397043 5.796875 17.27734375 C2.97341579 20.96352661 0.29689069 23.09876821 -4.203125 24.27734375 C-10.08239748 24.94292177 -14.45708534 23.71155672 -19.203125 20.27734375 C-21.74806962 16.88408426 -22.43733566 14.36098475 -22.140625 10.21484375 C-21.46153186 6.3543469 -20.04667987 4.03965419 -17.203125 1.27734375 C-12.11994932 -1.84737896 -5.59743975 -1.83603963 0 0 Z " fill="#313131" transform="translate(560.203125,60.72265625)"/>
<path d="M0 0 C3.465 1.485 3.465 1.485 7 3 C7.1875 5.875 7.1875 5.875 7 9 C4 11 4 11 0 11 C0 7.37 0 3.74 0 0 Z " fill="#5FB6EE" transform="translate(57,168)"/>
<path d="M0 0 C1.32 0 2.64 0 4 0 C4 3.3 4 6.6 4 10 C2.02 9.34 0.04 8.68 -2 8 C-2.125 5.125 -2.125 5.125 -2 2 C-1.34 1.34 -0.68 0.68 0 0 Z " fill="#48AEED" transform="translate(50,151)"/>
<path d="M0 0 C0.66 0.33 1.32 0.66 2 1 C-0.64 3.64 -3.28 6.28 -6 9 C-6.66 8.67 -7.32 8.34 -8 8 C-3.375 2.25 -3.375 2.25 0 0 Z " fill="#575757" transform="translate(720,94)"/>
<path d="" fill="#C9C9C9" transform="translate(0,0)"/>
<path d="" fill="#CBCBCB" transform="translate(0,0)"/>
<path d="" fill="#B6B6B6" transform="translate(0,0)"/>
</svg>
