<?xml version="1.0" encoding="UTF-8"?>
<svg version="1.1" xmlns="http://www.w3.org/2000/svg" width="1020" height="218">
<path d="M0 0 C0.72858019 -0.00297112 1.45716037 -0.00594224 2.20781875 -0.0090034 C4.65587103 -0.01769392 7.10387442 -0.01919895 9.55194092 -0.02069092 C11.30455124 -0.02531888 13.05716054 -0.03034351 14.80976868 -0.03573608 C19.57643756 -0.04886507 24.34309235 -0.05530613 29.1097765 -0.05974674 C32.0876694 -0.06267694 35.06555844 -0.06678167 38.0434494 -0.07125092 C47.36010224 -0.08492777 56.67674626 -0.09459325 65.99340844 -0.09845281 C76.74880015 -0.10293278 87.50406472 -0.12047712 98.25941777 -0.1494534 C106.57204806 -0.17107131 114.88464258 -0.18115716 123.19730067 -0.18249393 C128.16235791 -0.18354196 133.12729566 -0.18944947 138.0923233 -0.20731354 C142.76430442 -0.22379585 147.43607626 -0.22594893 152.1080761 -0.21717453 C153.82090503 -0.21640422 155.53374522 -0.22074614 157.24654579 -0.23063278 C159.58917274 -0.24335958 161.93105936 -0.23747191 164.27368164 -0.22705078 C165.58334019 -0.22851734 166.89299873 -0.2299839 168.2423439 -0.2314949 C174.19415436 0.37525281 178.80292733 2.32036995 182.70330811 7.01544189 C183.54828857 8.00157471 183.54828857 8.00157471 184.41033936 9.00762939 C187.78257071 13.865778 188.16935972 18.27720648 188.08612061 24.06622314 C188.08329071 24.81381393 188.08046082 25.56140472 188.07754517 26.33164978 C188.06640279 28.70558069 188.04130972 31.07912614 188.01580811 33.45294189 C188.0057706 35.0681708 187.9966461 36.68340565 187.98846436 38.29864502 C187.96648299 42.24605783 187.93199467 46.19318464 187.89080811 50.14044189 C187.19891388 50.14408752 186.50701965 50.14773315 185.79415894 50.15148926 C179.23360361 50.18955343 172.67351003 50.2466119 166.11329842 50.32434464 C162.74159082 50.36364424 159.37013753 50.39591724 155.99822998 50.41143799 C152.11043914 50.43297302 148.22361791 50.47968132 144.33612061 50.53106689 C143.14092804 50.53229553 141.94573547 50.53352417 140.71432495 50.53479004 C132.11033394 50.68355784 124.96929533 52.0372451 118.01580811 57.32794189 C114.08326527 62.532778 111.05192175 68.31265998 111.44158936 75.03106689 C112.9931645 82.31672408 116.70169734 88.09857364 122.89080811 92.14044189 C127.03703248 93.77080959 130.54503681 94.40208432 134.98797607 94.45928955 C136.75913284 94.48909409 136.75913284 94.48909409 138.56607056 94.51950073 C139.82565582 94.53105194 141.08524109 94.54260315 142.38299561 94.55450439 C143.68407257 94.57387054 144.98514954 94.59323669 146.32565308 94.6131897 C149.76801575 94.66432128 153.21041733 94.70404777 156.6529541 94.74133301 C160.17243931 94.78149237 163.69176534 94.83252999 167.21112061 94.88262939 C174.10423319 94.97916356 180.99744818 95.06363965 187.89080811 95.14044189 C187.96518387 100.58474772 188.01951677 106.02875519 188.05560303 111.47344971 C188.07065281 113.32408808 188.09109744 115.174691 188.11712646 117.02520752 C188.1536779 119.69131234 188.17057265 122.35694398 188.18377686 125.02325439 C188.19926071 125.84536407 188.21474457 126.66747375 188.23069763 127.51449585 C188.23255327 133.90506794 186.84126335 137.98993996 182.45330811 142.82794189 C177.35692511 147.42711679 174.14717302 149.26858843 167.23376465 149.26069641 C166.30270905 149.26207108 165.37165344 149.26344574 164.41238403 149.26486206 C163.3981839 149.26126678 162.38398376 149.25767151 161.33905029 149.25396729 C159.72883499 149.25418633 159.72883499 149.25418633 158.08609009 149.25440979 C154.53660056 149.25371292 150.98716347 149.24593103 147.43768311 149.23809814 C144.97717314 149.23623316 142.51666281 149.23480964 140.05615234 149.23381042 C133.57886735 149.22999156 127.10160476 149.22016662 120.62432861 149.20910645 C114.01524153 149.1988788 107.40615082 149.1943099 100.79705811 149.18927002 C87.82829854 149.17854382 74.85955452 149.16166704 61.89080811 149.14044189 C62.30653076 148.03635986 62.30653076 148.03635986 62.73065186 146.90997314 C63.09287842 145.93415283 63.45510498 144.95833252 63.82830811 143.95294189 C64.18795654 142.99001221 64.54760498 142.02708252 64.91815186 141.03497314 C68.8624696 129.29706372 68.5607798 113.57057422 63.89080811 102.14044189 C63.55049561 101.30641846 63.21018311 100.47239502 62.85955811 99.61309814 C56.46921368 85.60183622 45.86345869 76.19229056 31.89080811 70.14044189 C30.83119873 69.67637939 30.83119873 69.67637939 29.75018311 69.20294189 C16.90526078 64.25526811 1.93388163 65.38746657 -10.64825439 70.60919189 C-13.52607343 72.03759842 -16.32073184 73.54640183 -19.10919189 75.14044189 C-20.43979864 75.81253408 -21.77269328 76.48014373 -23.10919189 77.14044189 C-23.20218049 69.19487175 -23.27310189 61.24953181 -23.31644058 53.30355072 C-23.33724899 49.61324235 -23.36544109 45.92330832 -23.41094971 42.23321533 C-23.45465133 38.66702128 -23.47837966 35.10118558 -23.48870087 31.53474426 C-23.49960684 29.52294077 -23.53079381 27.51127994 -23.56237793 25.49969482 C-23.56414941 18.22503144 -23.13117208 13.28267233 -19.10919189 7.14044189 C-16.85528564 5.08184814 -16.85528564 5.08184814 -14.54669189 3.70294189 C-13.78227783 3.22985596 -13.01786377 2.75677002 -12.23028564 2.26934814 C-8.04906205 0.04398237 -4.67828664 0.01063817 0 0 Z " fill="#2890E0" transform="translate(44.10919189453125,40.85955810546875)"/>
<path d="M0 0 C10.58979496 8.10443492 16.5608253 19.2433012 19.75 32 C21.01576121 47.18913456 17.91317287 61.51330424 8.3125 73.75 C-0.95006637 83.58847724 -13.55601531 90.19560219 -27.09375 91.23828125 C-35.78345716 91.4276212 -42.90187366 90.1298164 -51 87 C-51.72703125 86.73445313 -52.4540625 86.46890625 -53.203125 86.1953125 C-64.8652864 81.21756068 -73.3445683 70.32263466 -78.3125 59.01171875 C-82.98787891 45.97585325 -82.6129042 31.67856007 -77 19 C-69.92980844 5.55963584 -59.99261737 -3.21148101 -45.67578125 -8.23828125 C-29.29567774 -12.90123042 -13.82609869 -9.4884991 0 0 Z M-32 16 C-32 16.99 -32 17.98 -32 19 C-33.299375 19.0928125 -33.299375 19.0928125 -34.625 19.1875 C-39.00634099 20.24226728 -40.75698868 21.90782641 -44 25 C-45.61529266 28.23058531 -45.57656747 31.50707381 -45 35 C-41.47999473 40.06000757 -37.77249279 40.92377253 -32 42 C-32 45.96 -32 49.92 -32 54 C-35.63 52.35 -39.26 50.7 -43 49 C-44.32 50.65 -45.64 52.3 -47 54 C-42.39483731 57.45387201 -38.63992111 58.83311977 -33 60 C-32.67 61.32 -32.34 62.64 -32 64 C-30.68 64 -29.36 64 -28 64 C-28 62.68 -28 61.36 -28 60 C-27.39671875 59.91363281 -26.7934375 59.82726562 -26.171875 59.73828125 C-22.16661416 59.03413055 -19.61162843 58.53517488 -16.5 55.8125 C-14.67061349 52.38240029 -14.06947287 49.89048074 -14 46 C-15.58799475 42.32253848 -17.49357266 39.94801519 -21 38 C-24.65274469 37.27518916 -24.65274469 37.27518916 -28 37 C-28 33.04 -28 29.08 -28 25 C-25.03 25.99 -22.06 26.98 -19 28 C-18.01 27.01 -17.02 26.02 -16 25 C-16.33 24.01 -16.66 23.02 -17 22 C-19.30163967 21.0837631 -19.30163967 21.0837631 -22 20.5 C-24.75 19.84375 -24.75 19.84375 -27 19 C-27.33 18.01 -27.66 17.02 -28 16 C-29.32 16 -30.64 16 -32 16 Z " fill="#37A4E9" transform="translate(86,123)"/>
<path d="M0 0 C6.93 0 13.86 0 21 0 C23.25 9 23.25 9 23.77783203 12.3046875 C23.89780548 13.04485107 24.01777893 13.78501465 24.14138794 14.54760742 C24.26230804 15.31564697 24.38322815 16.08368652 24.5078125 16.875 C24.63815887 17.68493408 24.76850525 18.49486816 24.90280151 19.3293457 C25.31345359 21.88572204 25.71930713 24.44283247 26.125 27 C26.40462942 28.74614478 26.68457438 30.49223907 26.96484375 32.23828125 C27.64687582 36.49161281 28.32460908 40.74560905 29 45 C30.44078754 42.3144183 31.38842286 39.86447786 32.03735352 36.88989258 C32.21416153 36.09259232 32.39096954 35.29529205 32.57313538 34.47383118 C32.75653976 33.6226622 32.93994415 32.77149323 33.12890625 31.89453125 C33.4207505 30.57481575 33.4207505 30.57481575 33.7184906 29.22843933 C34.33817419 26.42420188 34.9509291 23.61851704 35.5625 20.8125 C36.17820292 17.99590499 36.7954492 15.17968745 37.41722107 12.36442566 C37.80377279 10.61353707 38.18672619 8.8618496 38.56581116 7.10932922 C39.88766308 1.11233692 39.88766308 1.11233692 41 0 C42.63472882 -0.08700342 44.27314055 -0.10701063 45.91015625 -0.09765625 C47.39418945 -0.09282227 47.39418945 -0.09282227 48.90820312 -0.08789062 C49.94912109 -0.07951172 50.99003906 -0.07113281 52.0625 -0.0625 C53.62967773 -0.05573242 53.62967773 -0.05573242 55.22851562 -0.04882812 C57.8190666 -0.03699913 60.40950559 -0.02051689 63 0 C64.40683729 6.03207666 65.81265307 12.06439013 67.2175293 18.09692383 C67.69543957 20.14842133 68.17362725 22.19985423 68.65209961 24.2512207 C69.3404139 27.2024665 70.0277251 30.15394438 70.71484375 33.10546875 C70.92842026 34.02023483 71.14199677 34.93500092 71.36204529 35.87748718 C71.56217728 36.73800186 71.76230927 37.59851654 71.96850586 38.48510742 C72.14393417 39.23789474 72.31936249 39.99068207 72.50010681 40.76628113 C73.03790308 43.16936583 73.51705865 45.58529327 74 48 C76.64 32.16 79.28 16.32 82 0 C88.93 0 95.86 0 103 0 C101.87492908 9.0005674 101.87492908 9.0005674 100.83251953 13.49121094 C100.48678391 14.99382477 100.48678391 14.99382477 100.13406372 16.52679443 C99.88615082 17.58529602 99.63823792 18.64379761 99.3828125 19.734375 C98.99607864 21.40599701 98.99607864 21.40599701 98.60153198 23.11138916 C97.77978327 26.6584778 96.95235002 30.20421419 96.125 33.75 C95.57647651 36.11710726 95.02829614 38.48429405 94.48046875 40.8515625 C93.94823177 43.14590645 93.41568947 45.44017961 92.8828125 47.734375 C92.63894806 48.78477966 92.39508362 49.83518433 92.14382935 50.91741943 C90.4985802 57.96512856 88.755753 64.976988 87 72 C78.75 72 70.5 72 62 72 C58.44418978 58.05028298 55.20642814 44.03374562 52 30 C50.34683383 34.66892258 49.15634059 39.37749181 48.08984375 44.20703125 C47.73634192 45.7779979 47.38282589 47.34896135 47.02929688 48.91992188 C46.47969796 51.37990192 45.93134261 53.84015536 45.38354492 56.30053711 C44.85115319 58.6867211 44.31442561 61.07189932 43.77734375 63.45703125 C43.61378891 64.19862991 43.45023407 64.94022858 43.28172302 65.70429993 C42.112978 70.887022 42.112978 70.887022 41 72 C39.21928754 72.08726223 37.4351686 72.10699041 35.65234375 72.09765625 C34.57275391 72.09443359 33.49316406 72.09121094 32.38085938 72.08789062 C31.24455078 72.07951172 30.10824219 72.07113281 28.9375 72.0625 C27.79732422 72.05798828 26.65714844 72.05347656 25.48242188 72.04882812 C22.65489649 72.03699747 19.8274736 72.0205141 17 72 C15.37537599 68.21974465 14.31902353 64.50453205 13.39599609 60.49731445 C13.24940048 59.86581482 13.10280487 59.23431519 12.95176697 58.5836792 C12.4717259 56.51109871 11.99745912 54.437246 11.5234375 52.36328125 C11.19028024 50.91783622 10.85683063 49.47245855 10.52310181 48.02714539 C9.82637587 45.00588922 9.13236341 41.98402713 8.44042969 38.96166992 C7.55245276 35.08346664 6.65897784 31.20655613 5.76364708 27.33004475 C5.07563189 24.3493956 4.38986561 21.36823283 3.70485306 18.38689232 C3.37605994 16.95659008 3.04671328 15.52641498 2.71680832 14.09636879 C2.25741775 12.10291722 1.8012364 10.10872691 1.34521484 8.11450195 C1.08477386 6.97930618 0.82433289 5.84411041 0.55599976 4.67451477 C0 2 0 2 0 0 Z " fill="#1C1C1C" transform="translate(532,44)"/>
<path d="M0 0 C1.051875 0.598125 2.10375 1.19625 3.1875 1.8125 C11.31515621 8.13401039 16.4741185 16.78978061 18 27 C19.00270932 37.37892108 16.89965356 47.59229738 10.6484375 56.0390625 C4.70134329 63.11356793 -2.76982545 68.00319592 -12.11083984 69.29101562 C-23.94529168 70.31047243 -34.38890017 68.71491269 -43.9375 61.125 C-51.62148669 53.79623411 -55.29528351 45.57074737 -56 35 C-56 23.70668906 -53.43557835 14.11411639 -45.83984375 5.66796875 C-33.12827173 -5.85611034 -15.04709476 -8.56338726 0 0 Z M-32.375 19.375 C-35.63101108 24.63471021 -36.87815005 29.84210827 -36 36 C-34.338739 41.96258002 -32.53737975 46.73436579 -27 50 C-21.56382947 51.81205684 -16.01784814 51.7099836 -10.625 49.8125 C-5.76094437 46.4539854 -3.32514729 42.74230493 -2 37 C-1.35677106 30.92882154 -1.87413267 25.3419673 -5 20 C-8.78997862 15.70904719 -13.1772719 13.37636375 -18.8125 12.625 C-24.29784803 13.27033506 -28.48169561 15.48169561 -32.375 19.375 Z " fill="#1C1C1C" transform="translate(359,47)"/>
<path d="M0 0 C6.6 0 13.2 0 20 0 C20.33 8.25 20.66 16.5 21 25 C23.31 23.02 25.62 21.04 28 19 C33.80654956 17.06448348 39.93256415 17.37976925 45.75 19.125 C53.18040045 23.41176949 57.32490328 27.73021175 60 36 C62.22253044 45.06792418 62.11090653 55.50218969 58 64 C54.58408535 69.09297869 50.06448973 74.28868015 44 76 C36.04051449 76.90213767 29.46945853 76.99912705 23 72 C22.34 71.34 21.68 70.68 21 70 C20.67 71.98 20.34 73.96 20 76 C13.4 76 6.8 76 0 76 C0 50.92 0 25.84 0 0 Z M22 38 C19.0866078 42.63076023 19.34201537 47.71262351 20 53 C21.80118478 56.00197464 22.90332732 57.45166366 26 59 C29.05920574 59.42071592 31.9467746 59.48514117 35 59 C37.75569447 56.81840855 39.43588747 55.12822506 41 52 C41.43540712 47.73803412 41.47065428 44.08250484 39.75 40.125 C36.80276834 36.5462187 35.29678098 35.14146702 30.5625 34.625 C26.77512139 35.02367143 24.95280637 35.6377549 22 38 Z " fill="#1C1C1C" transform="translate(433,40)"/>
<path d="M0 0 C3.16126808 2.31312299 5.20320964 4.75240982 7.5625 7.875 C7.8925 5.235 8.2225 2.595 8.5625 -0.125 C14.8325 -0.125 21.1025 -0.125 27.5625 -0.125 C27.5625 18.685 27.5625 37.495 27.5625 56.875 C20.9625 56.875 14.3625 56.875 7.5625 56.875 C7.0675 53.905 7.0675 53.905 6.5625 50.875 C5.1703125 52.0815625 5.1703125 52.0815625 3.75 53.3125 C-0.35851165 56.8732101 -3.89844148 57.05660948 -9.25 57.125 C-11.05404297 57.16367188 -11.05404297 57.16367188 -12.89453125 57.203125 C-18.68141048 56.6671847 -23.36099007 53.95150993 -27.4375 49.875 C-33.46567188 39.85634814 -35.29325725 29.32664873 -32.75390625 17.76171875 C-30.26795253 10.30385758 -26.64700261 4.5211862 -19.8125 0.4375 C-13.54218174 -2.36002661 -6.42835407 -2.10382497 0 0 Z M-12.4375 20.875 C-14.11717818 25.91403455 -14.30814828 30.92640623 -12.125 35.8125 C-10.14924345 38.22731356 -8.4952844 39.70464521 -5.3515625 40.2109375 C-1.22282948 40.28139369 0.97465089 40.2424057 4.5625 38 C7.61572706 34.75594625 7.72072555 32.86774786 7.75 28.5 C7.76417969 27.54351562 7.77835938 26.58703125 7.79296875 25.6015625 C7.55612663 22.79959983 7.06711637 21.22596309 5.5625 18.875 C2.69889535 16.58411628 0.77009371 15.90519545 -2.875 15.375 C-7.62947325 16.04229449 -9.10971155 17.46797849 -12.4375 20.875 Z " fill="#1C1C1C" transform="translate(675.4375,59.125)"/>
<path d="M0 0 C3.98355085 3.97580075 5.90584591 7.76461478 8 13 C8 17.29 8 21.58 8 26 C-4.54 26 -17.08 26 -30 26 C-27.92492406 33.41770416 -27.92492406 33.41770416 -25.25 35.5625 C-21.92056609 36.20988993 -19.27899449 35.78938756 -16 35 C-15.34 34.01 -14.68 33.02 -14 32 C-11.84521484 31.65942383 -11.84521484 31.65942383 -9.2109375 31.70703125 C-8.26992188 31.71669922 -7.32890625 31.72636719 -6.359375 31.73632812 C-5.37453125 31.76146484 -4.3896875 31.78660156 -3.375 31.8125 C-1.88613281 31.83280273 -1.88613281 31.83280273 -0.3671875 31.85351562 C2.08908072 31.88894257 4.54427285 31.93833804 7 32 C5.80698438 38.93586532 2.23249537 43.07168083 -2.92578125 47.60546875 C-10.95437063 53.00322093 -19.63849119 53.3074733 -29 52 C-36.63128769 49.79094304 -41.7847784 46.23595554 -45.9140625 39.44140625 C-49.67208017 30.99262553 -50.58374102 21.28097289 -48.3125 12.2734375 C-45.18891603 4.69874637 -40.44258813 -0.78569475 -33.02734375 -4.2734375 C-21.69089561 -8.33621082 -9.75196348 -7.01015004 0 0 Z M-28 12 C-29.80935423 14.63178797 -30 15.7611766 -30 19 C-24.06 19 -18.12 19 -12 19 C-12.2715978 12.44381223 -12.2715978 12.44381223 -14.75 10.0625 C-19.79976405 7.6778892 -23.41569984 9.14754656 -28 12 Z " fill="#1C1C1C" transform="translate(824,64)"/>
<path d="M0 0 C5.65265383 3.96587103 9.04885034 8.53915138 10.71484375 15.203125 C10.71484375 18.833125 10.71484375 22.463125 10.71484375 26.203125 C-34.16515625 26.203125 -79.04515625 26.203125 -125.28515625 26.203125 C-122.60683701 24.41757884 -121.12879699 23.75314116 -118.11695862 22.98228455 C-117.26878571 22.76221237 -116.42061279 22.5421402 -115.54673767 22.31539917 C-114.61938309 22.08104156 -113.6920285 21.84668396 -112.73657227 21.60522461 C-111.75744873 21.35294601 -110.7783252 21.10066742 -109.76953125 20.84074402 C-106.52741909 20.00684561 -103.2832797 19.18113619 -100.0390625 18.35546875 C-97.78835993 17.77829465 -95.53778679 17.20061559 -93.28733826 16.62245178 C-87.35703929 15.10036256 -81.42498701 13.58521808 -75.49255371 12.07147217 C-69.45814687 10.53038341 -63.42544198 8.98266265 -57.39257812 7.43554688 C-48.58365063 5.17743219 -39.77403662 2.92203025 -30.96313477 0.67163086 C-29.57513924 0.31705811 -29.57513924 0.31705811 -28.15910339 -0.04467773 C-26.88261429 -0.37055626 -26.88261429 -0.37055626 -25.58033752 -0.70301819 C-24.84311242 -0.8912317 -24.10588732 -1.07944521 -23.34632206 -1.27336216 C-22.66613734 -1.4461214 -21.98595263 -1.61888063 -21.28515625 -1.796875 C-20.5884529 -1.97952125 -19.89174955 -2.16216749 -19.17393398 -2.35034847 C-12.51793838 -3.92389445 -5.92071812 -3.43861748 0 0 Z " fill="#2A90E0" transform="translate(196.28515625,7.796875)"/>
<path d="M0 0 C1.29966202 0.00565979 2.59932404 0.01131958 3.93836975 0.01715088 C7.37288888 0.03233297 10.80671798 0.07154806 14.2409668 0.1159668 C17.75364686 0.15708172 21.2664431 0.17541634 24.77929688 0.1953125 C31.65685692 0.23592401 38.53252882 0.3142305 45.41015625 0.390625 C45.41015625 10.620625 45.41015625 20.850625 45.41015625 31.390625 C37.86170418 31.49572412 30.31592866 31.59585814 22.76737976 31.64937592 C19.25166253 31.67569022 15.73655611 31.71080302 12.22119141 31.76782227 C8.17995571 31.8329548 4.13935854 31.85688118 0.09765625 31.87890625 C-1.15160645 31.90471268 -2.40086914 31.9305191 -3.68798828 31.95710754 C-10.96504278 31.95943532 -16.01878257 31.2999659 -21.58984375 26.390625 C-25.0215292 22.63721904 -25.10856035 18.78968971 -24.93359375 13.890625 C-24.20853638 8.61748048 -22.04144752 5.51488775 -17.78686523 2.21972656 C-12.26646267 -0.77202159 -6.10640979 -0.10049847 0 0 Z M-10.58984375 12.390625 C-11.24984375 13.050625 -11.90984375 13.710625 -12.58984375 14.390625 C-12.27132605 16.49883297 -12.27132605 16.49883297 -11.58984375 18.390625 C-9.69805172 19.0721073 -9.69805172 19.0721073 -7.58984375 19.390625 C-6.92984375 18.730625 -6.26984375 18.070625 -5.58984375 17.390625 C-5.90836145 15.28241703 -5.90836145 15.28241703 -6.58984375 13.390625 C-8.48163578 12.7091427 -8.48163578 12.7091427 -10.58984375 12.390625 Z " fill="#1D7CD6" transform="translate(186.58984375,97.609375)"/>
<path d="M0 0 C6.27 0 12.54 0 19 0 C19 4.62 19 9.24 19 14 C22.63 14 26.26 14 30 14 C30 19.28 30 24.56 30 30 C26.37 30 22.74 30 19 30 C19.11350996 33.45906666 19.24026306 36.91675193 19.375 40.375 C19.4059375 41.35984375 19.436875 42.3446875 19.46875 43.359375 C19.50742187 44.30039063 19.54609375 45.24140625 19.5859375 46.2109375 C19.63306885 47.51490479 19.63306885 47.51490479 19.68115234 48.84521484 C19.81229433 51.20961794 19.81229433 51.20961794 22 53 C24.64 53.33 27.28 53.66 30 54 C30 59.61 30 65.22 30 71 C20.89213264 71.2986186 11.18750934 71.28907067 4 65 C0.26803475 59.98115018 -0.1290208 55.15905526 -0.09765625 49.04296875 C-0.09282227 47.37524414 -0.09282227 47.37524414 -0.08789062 45.67382812 C-0.07951172 44.52333984 -0.07113281 43.37285156 -0.0625 42.1875 C-0.05798828 41.01767578 -0.05347656 39.84785156 -0.04882812 38.64257812 C-0.0370693 35.76166642 -0.02063426 32.88085956 0 30 C-2.31 30 -4.62 30 -7 30 C-7 24.72 -7 19.44 -7 14 C-4.69 14 -2.38 14 0 14 C0 9.38 0 4.76 0 0 Z " fill="#1C1C1C" transform="translate(845,45)"/>
<path d="M0 0 C6.6 0 13.2 0 20 0 C20 25.08 20 50.16 20 76 C13.4 76 6.8 76 0 76 C0 50.92 0 25.84 0 0 Z " fill="#1C1C1C" transform="translate(746,40)"/>
<path d="M0 0 C0 6.93 0 13.86 0 21 C-3.25520833 21.45572917 -6.51041667 21.91145833 -9.765625 22.3671875 C-13.6465545 23.10304199 -13.6465545 23.10304199 -17 25 C-18.95249758 28.91073002 -19.29517788 32.27399245 -19.4140625 36.61328125 C-19.45273437 37.86044922 -19.49140625 39.10761719 -19.53125 40.39257812 C-19.5621875 41.68615234 -19.593125 42.97972656 -19.625 44.3125 C-19.66367187 45.62541016 -19.70234375 46.93832031 -19.7421875 48.29101562 C-19.83632859 51.52711551 -19.91924784 54.76353834 -20 58 C-26.27 58 -32.54 58 -39 58 C-39 39.19 -39 20.38 -39 1 C-32.73 1 -26.46 1 -20 1 C-19.67 3.97 -19.34 6.94 -19 10 C-18.43152344 9.44570312 -17.86304688 8.89140625 -17.27734375 8.3203125 C-11.6839858 3.07245413 -7.87445573 0 0 0 Z " fill="#1C1C1C" transform="translate(426,58)"/>
<path d="M0 0 C6.27 0 12.54 0 19 0 C19 25.08 19 50.16 19 76 C12.73 76 6.46 76 0 76 C0 50.92 0 25.84 0 0 Z " fill="#1C1C1C" transform="translate(715,40)"/>
<path d="M0 0 C6.27 0 12.54 0 19 0 C19 18.81 19 37.62 19 57 C12.73 57 6.46 57 0 57 C0 38.19 0 19.38 0 0 Z " fill="#1C1C1C" transform="translate(503,59)"/>
<path d="M0 0 C2.25764515 3.31591632 2.67820735 5.0826761 2.43359375 9.00390625 C1.75194607 12.04368646 0.19767713 13.80446044 -2 15.9375 C-5.9350421 17.90502105 -10.7105522 17.40172595 -15 16.9375 C-18.00197464 15.13631522 -19.45166366 14.03417268 -21 10.9375 C-21.48934939 6.69647199 -21.42023316 3.94683081 -18.8125 0.5625 C-13.35111024 -4.53479711 -6.01795052 -4.13734098 0 0 Z " fill="#1D1D1D" transform="translate(522,35.0625)"/>
<path d="M0 0 C2.475 0.495 2.475 0.495 5 1 C6.51171875 3.328125 6.51171875 3.328125 7.6875 6.25 C8.28111328 7.68085938 8.28111328 7.68085938 8.88671875 9.140625 C9.25410156 10.08421875 9.62148438 11.0278125 10 12 C10.37769531 12.94359375 10.75539063 13.8871875 11.14453125 14.859375 C11.56798828 15.91898438 11.56798828 15.91898438 12 17 C14.16575619 13.75136571 15.62352411 10.39377143 17.125 6.8125 C17.40214844 6.15830078 17.67929687 5.50410156 17.96484375 4.83007812 C18.64597045 3.22120988 19.32335403 1.61075785 20 0 C21.65 0 23.3 0 25 0 C25 8.25 25 16.5 25 25 C23.68 25 22.36 25 21 25 C20.67 20.38 20.34 15.76 20 11 C18.9171875 14.1865625 18.9171875 14.1865625 17.8125 17.4375 C16.58203125 21.05859375 16.58203125 21.05859375 15 24 C13.35 24.33 11.7 24.66 10 25 C8.35 20.71 6.7 16.42 5 12 C4.67 16.29 4.34 20.58 4 25 C2.68 25 1.36 25 0 25 C0 16.75 0 8.5 0 0 Z " fill="#1F70CB" transform="translate(729,145)"/>
<path d="M0 0 C1.051875 0.2475 1.051875 0.2475 2.125 0.5 C5.10501273 1.18702746 5.10501273 1.18702746 8.5 0.375 C12.51771614 -0.05546959 13.84326308 0.60853263 17 3 C17.53625 2.484375 18.0725 1.96875 18.625 1.4375 C21 0 21 0 24.0625 0.125 C27.02518247 1.00750116 28.16344947 1.58348614 30 4 C31.50156874 7.00313748 31.09281204 9.79067522 31.0625 13.125 C31.05347656 14.40632812 31.04445313 15.68765625 31.03515625 17.0078125 C31.02355469 17.99523437 31.01195312 18.98265625 31 20 C29.35 20 27.7 20 26 20 C25.67 15.38 25.34 10.76 25 6 C22.69 5.67 20.38 5.34 18 5 C17.67 9.95 17.34 14.9 17 20 C15.68 20 14.36 20 13 20 C12.67 15.05 12.34 10.1 12 5 C9.69 5.33 7.38 5.66 5 6 C4.67 10.62 4.34 15.24 4 20 C2.35 20 0.7 20 -1 20 C-1.02888514 16.85418577 -1.04675923 13.70840531 -1.0625 10.5625 C-1.07087891 9.66466797 -1.07925781 8.76683594 -1.08789062 7.84179688 C-1.09111328 6.98779297 -1.09433594 6.13378906 -1.09765625 5.25390625 C-1.10551147 4.06776733 -1.10551147 4.06776733 -1.11352539 2.85766602 C-1 1 -1 1 0 0 Z " fill="#2B76CA" transform="translate(909,150)"/>
<path d="M0 0 C0.33 0.33 0.66 0.66 1 1 C1.33 0.34 1.66 -0.32 2 -1 C3.32 -1 4.64 -1 6 -1 C6.14553599 2.89543877 6.23415059 6.79017651 6.3125 10.6875 C6.35439453 11.79029297 6.39628906 12.89308594 6.43945312 14.02929688 C6.56284551 22.1978725 6.56284551 22.1978725 3.73046875 26.234375 C0.38824236 28.39558577 -1.21532143 28.67742248 -5.0625 28.4296875 C-8.15492536 27.74386736 -9.89529893 26.3020168 -12 24 C-12 23.01 -12 22.02 -12 21 C-7.125 21.875 -7.125 21.875 -6 23 C-4.00041636 23.04080783 -1.99954746 23.04254356 0 23 C0.33 21.02 0.66 19.04 1 17 C0.34 17.66 -0.32 18.32 -1 19 C-5.39873772 19.58096536 -7.29628291 19.53543691 -10.875 16.8125 C-13.06330419 13.91621505 -13.91242851 12.59043116 -14 9 C-13.24777476 5.31409631 -12.33120764 3.36905994 -9.8125 0.5625 C-6.11557867 -1.49134518 -4.02882778 -1.00720694 0 0 Z M-7.25 4.5625 C-9.39858007 7.00982848 -9.39858007 7.00982848 -8.75 10.75 C-8.5025 11.8225 -8.255 12.895 -8 14 C-3.40145723 15.12319413 -3.40145723 15.12319413 1 14 C2.60559331 10.78881337 1.86197805 8.38634233 1 5 C-2.51056778 2.65962148 -3.73207044 2.11949336 -7.25 4.5625 Z " fill="#2271CB" transform="translate(864,151)"/>
<path d="M0 0 C2.03471688 0.0877058 2.03471688 0.0877058 4.0625 -0.5625 C4.701875 -0.706875 5.34125 -0.85125 6 -1 C7 0 7 0 7.11352539 1.85766602 C7.10828857 2.64842529 7.10305176 3.43918457 7.09765625 4.25390625 C7.09443359 5.10791016 7.09121094 5.96191406 7.08789062 6.84179688 C7.07951172 7.73962891 7.07113281 8.63746094 7.0625 9.5625 C7.05798828 10.46419922 7.05347656 11.36589844 7.04882812 12.29492188 C7.03700225 14.53001314 7.0205222 16.76497437 7 19 C4.33333333 19 1.66666667 19 -1 19 C-1.969375 19.04125 -2.93875 19.0825 -3.9375 19.125 C-7.01863488 18.99923939 -8.51479407 18.77514709 -11 17 C-13.54594764 13.56297069 -13.36399464 10.14953888 -13 6 C-9.9003357 -0.64213778 -6.9449343 -1.26271533 0 0 Z M-6.6875 4.0625 C-8.69861232 7.03128486 -8.31688362 9.51428022 -8 13 C-6.11499729 15.31563087 -6.11499729 15.31563087 -3 15.25 C0.11499729 15.31563087 0.11499729 15.31563087 2 13 C2.50007794 9.54213985 2.50007794 9.54213985 2 6 C0.30835778 3.95970404 0.30835778 3.95970404 -2 3 C-4.90923892 2.73359337 -4.90923892 2.73359337 -6.6875 4.0625 Z " fill="#2975CA" transform="translate(614,151)"/>
<path d="M0 0 C0.33 -0.66 0.66 -1.32 1 -2 C2.32 -2 3.64 -2 5 -2 C5 4.6 5 11.2 5 18 C3.68 18 2.36 18 1 18 C0.67 17.34 0.34 16.68 0 16 C-0.66 16.66 -1.32 17.32 -2 18 C-5.96521963 18.44889279 -8.31394495 18.35794176 -11.875 16.5 C-14.74044464 13.12888866 -15.29463757 10.3774724 -15 6 C-13.83883007 2.69983283 -12.93169315 0.73892905 -10.1875 -1.4375 C-6.56329022 -2.36943966 -3.31220541 -1.65610271 0 0 Z M-8.375 3 C-10.25665304 4.96716708 -10.25665304 4.96716708 -10.4375 8 C-10.2169765 10.93915224 -10.2169765 10.93915224 -8.8125 12.875 C-6.31963619 14.42229478 -4.88032665 14.50405716 -2 14 C0.02896212 12.46186579 0.02896212 12.46186579 1 10 C0.77426109 6.80764728 0.77426109 6.80764728 0 4 C-4.13315754 2.09590749 -4.13315754 2.09590749 -8.375 3 Z " fill="#2372CB" transform="translate(836,152)"/>
<path d="M0 0 C0.33 0.33 0.66 0.66 1 1 C1.33 0.34 1.66 -0.32 2 -1 C3.32 -1 4.64 -1 6 -1 C6 5.6 6 12.2 6 19 C4.68 19 3.36 19 2 19 C1.67 18.34 1.34 17.68 1 17 C0.34 17.66 -0.32 18.32 -1 19 C-5.39873772 19.58096536 -7.29628291 19.53543691 -10.875 16.8125 C-13.06330419 13.91621505 -13.91242851 12.59043116 -14 9 C-13.24777476 5.31409631 -12.33120764 3.36905994 -9.8125 0.5625 C-6.11557867 -1.49134518 -4.02882778 -1.00720694 0 0 Z M-7.25 4.5625 C-9.39858007 7.00982848 -9.39858007 7.00982848 -8.75 10.75 C-8.5025 11.8225 -8.255 12.895 -8 14 C-3.40145723 15.12319413 -3.40145723 15.12319413 1 14 C2.60559331 10.78881337 1.86197805 8.38634233 1 5 C-2.51056778 2.65962148 -3.73207044 2.11949336 -7.25 4.5625 Z " fill="#2271CB" transform="translate(777,151)"/>
<path d="M0 0 C1.34061543 0.30271961 2.67405895 0.63837971 4 1 C6.15875178 1.07915103 6.15875178 1.07915103 8.8125 0.3125 C12.66155477 -0.06485831 14.01793598 0.61434878 17 3 C18.18681726 6.56045177 18.09689832 9.43808337 18.0625 13.1875 C18.05347656 14.45980469 18.04445313 15.73210937 18.03515625 17.04296875 C18.02355469 18.01878906 18.01195312 18.99460938 18 20 C16.35 20 14.7 20 13 20 C12.93941406 19.00097656 12.87882813 18.00195312 12.81640625 16.97265625 C12.69072266 15.03712891 12.69072266 15.03712891 12.5625 13.0625 C12.48128906 11.77472656 12.40007813 10.48695313 12.31640625 9.16015625 C12.35080812 6.13976043 12.35080812 6.13976043 11 5 C8.5 4.83333333 8.5 4.83333333 6 5 C4.05909174 6.94090826 4.60080565 10.47293902 4.4375 13.0625 C4.35371094 14.35285156 4.26992188 15.64320313 4.18359375 16.97265625 C4.12300781 17.97167969 4.06242188 18.97070312 4 20 C2.35 20 0.7 20 -1 20 C-1.02888514 16.85418577 -1.04675923 13.70840531 -1.0625 10.5625 C-1.07087891 9.66466797 -1.07925781 8.76683594 -1.08789062 7.84179688 C-1.09111328 6.98779297 -1.09433594 6.13378906 -1.09765625 5.25390625 C-1.10551147 4.06776733 -1.10551147 4.06776733 -1.11352539 2.85766602 C-1 1 -1 1 0 0 Z " fill="#3279C9" transform="translate(574,150)"/>
<path d="M0 0 C2.5 2.25 2.5 2.25 4 5 C4 6.65 4 8.3 4 10 C-0.62 10 -5.24 10 -10 10 C-10 11.32 -10 12.64 -10 14 C-7.36 14 -4.72 14 -2 14 C-1.67 13.34 -1.34 12.68 -1 12 C0.65 12 2.3 12 4 12 C2.55813953 16.56589147 2.55813953 16.56589147 0.3125 18.3125 C-2.98491604 19.29281288 -5.57543187 19.36048086 -9 19 C-11.75329021 17.20437595 -13.52627461 15.94745078 -15 13 C-15.3751455 8.02932218 -15.15878799 4.94848498 -12 1 C-8.46264076 -1.88229272 -4.14459131 -1.31641732 0 0 Z M-10 5 C-10 5.99 -10 6.98 -10 8 C-7.03 8 -4.06 8 -1 8 C-1.57125354 4.25724788 -1.57125354 4.25724788 -3 3 C-6.961168 2.60909667 -6.961168 2.60909667 -10 5 Z " fill="#2874CA" transform="translate(701,151)"/>
<path d="M0 0 C1.34061543 0.30271961 2.67405895 0.63837971 4 1 C6.16463297 1.07080988 6.16463297 1.07080988 8.875 0.375 C12 0 12 0 14.25 0.625 C16.64152883 2.50405837 17.083457 4.10292713 18 7 C18.1953125 10.33203125 18.1953125 10.33203125 18.125 13.8125 C18.10695313 14.97394531 18.08890625 16.13539063 18.0703125 17.33203125 C18.04710937 18.21246094 18.02390625 19.09289062 18 20 C16.35 20 14.7 20 13 20 C12.93941406 19.00097656 12.87882813 18.00195312 12.81640625 16.97265625 C12.69072266 15.03712891 12.69072266 15.03712891 12.5625 13.0625 C12.48128906 11.77472656 12.40007813 10.48695313 12.31640625 9.16015625 C12.35080812 6.13976043 12.35080812 6.13976043 11 5 C8.5 4.83333333 8.5 4.83333333 6 5 C4.05909174 6.94090826 4.60080565 10.47293902 4.4375 13.0625 C4.35371094 14.35285156 4.26992188 15.64320313 4.18359375 16.97265625 C4.12300781 17.97167969 4.06242188 18.97070312 4 20 C2.35 20 0.7 20 -1 20 C-1.02888514 16.85418577 -1.04675923 13.70840531 -1.0625 10.5625 C-1.07087891 9.66466797 -1.07925781 8.76683594 -1.08789062 7.84179688 C-1.09111328 6.98779297 -1.09433594 6.13378906 -1.09765625 5.25390625 C-1.10551147 4.06776733 -1.10551147 4.06776733 -1.11352539 2.85766602 C-1 1 -1 1 0 0 Z " fill="#3078C9" transform="translate(978,150)"/>
<path d="M0 0 C2.9375 2.25 2.9375 2.25 5 5 C5 6.65 5 8.3 5 10 C0.05 10 -4.9 10 -10 10 C-9.34 11.32 -8.68 12.64 -8 14 C-5.08347826 14.16681109 -5.08347826 14.16681109 -2 14 C-1.34 13.34 -0.68 12.68 0 12 C2.625 11.875 2.625 11.875 5 12 C3.19587357 15.26460973 2.16605307 16.88929795 -1 19 C-5.13930053 19.30104004 -8.57099387 19.54000454 -12 17 C-14.30475582 14.00381744 -14.47091976 10.69095399 -14.39453125 6.96875 C-13.72206358 3.61306974 -11.59717314 2.04063604 -9 0 C-5.77509551 -1.61245225 -3.43772273 -0.81573082 0 0 Z M-8.8125 4.375 C-10.1966722 5.93368783 -10.1966722 5.93368783 -10 8 C-6.7 8 -3.4 8 0 8 C-0.57125354 4.25724788 -0.57125354 4.25724788 -2 3 C-4.92728993 2.69186422 -6.42560445 2.56425165 -8.8125 4.375 Z " fill="#2673CA" transform="translate(963,151)"/>
<path d="M0 0 C3.27588147 2.18392098 3.88086664 3.57111989 4.9375 7.375 C5.00954896 11.55383955 4.32455736 13.55324254 2 17 C-1.34725336 19.62998478 -4.8824152 19.43342998 -9 19 C-11.75329021 17.20437595 -13.52627461 15.94745078 -15 13 C-15.3751455 8.02932218 -15.15878799 4.94848498 -12 1 C-8.4248007 -1.91312536 -4.20133222 -1.17326731 0 0 Z M-10 5 C-11.09616096 7.31194193 -11.09616096 7.31194193 -11 10 C-9.66457328 12.78307606 -9.66457328 12.78307606 -8 15 C-5.6568787 14.74438677 -3.32156597 14.40729228 -1 14 C0.41441874 11.17116253 0.31900332 9.12623255 0 6 C-3.47606996 2.52393004 -5.92813792 2.24164182 -10 5 Z " fill="#2674CA" transform="translate(377,151)"/>
<path d="M0 0 C1.625 1.875 1.625 1.875 2.625 8.875 C-2.325 8.875 -7.275 8.875 -12.375 8.875 C-11.715 10.195 -11.055 11.515 -10.375 12.875 C-7.45847826 13.04181109 -7.45847826 13.04181109 -4.375 12.875 C-3.715 12.215 -3.055 11.555 -2.375 10.875 C0.25 10.75 0.25 10.75 2.625 10.875 C0.82087357 14.13960973 -0.20894693 15.76429795 -3.375 17.875 C-7.51430053 18.17604004 -10.94599387 18.41500454 -14.375 15.875 C-16.69593436 12.85778533 -16.78996065 9.58510852 -16.69921875 5.84375 C-16.18095067 2.69667637 -14.64724598 1.01740335 -12.375 -1.125 C-7.95706329 -2.59764557 -4.19706078 -1.98808142 0 0 Z M-11.1875 3.25 C-12.5716722 4.80868783 -12.5716722 4.80868783 -12.375 6.875 C-9.075 6.875 -5.775 6.875 -2.375 6.875 C-2.94625354 3.13224788 -2.94625354 3.13224788 -4.375 1.875 C-7.30228993 1.56686422 -8.80060445 1.43925165 -11.1875 3.25 Z " fill="#2573CA" transform="translate(896.375,152.125)"/>
<path d="M0 0 C1.34061543 0.30271961 2.67405895 0.63837971 4 1 C6.16463297 1.07080988 6.16463297 1.07080988 8.875 0.375 C12.17106399 -0.02052768 13.33263648 0.12296641 16 2 C17.59412284 5.18824568 17.10174735 8.62896662 17.0625 12.125 C17.05798828 12.87910156 17.05347656 13.63320312 17.04882812 14.41015625 C17.03703499 16.27347127 17.01909942 18.13674555 17 20 C15.68 20 14.36 20 13 20 C12.93941406 19.08476562 12.87882813 18.16953125 12.81640625 17.2265625 C12.69072266 15.44378906 12.69072266 15.44378906 12.5625 13.625 C12.48128906 12.44164062 12.40007813 11.25828125 12.31640625 10.0390625 C12.18915064 7.08481099 12.18915064 7.08481099 11 5 C9.33388095 4.957279 7.66617115 4.95936168 6 5 C4.05909174 6.94090826 4.60080565 10.47293902 4.4375 13.0625 C4.35371094 14.35285156 4.26992188 15.64320313 4.18359375 16.97265625 C4.12300781 17.97167969 4.06242188 18.97070312 4 20 C2.35 20 0.7 20 -1 20 C-1.02888514 16.85418577 -1.04675923 13.70840531 -1.0625 10.5625 C-1.07087891 9.66466797 -1.07925781 8.76683594 -1.08789062 7.84179688 C-1.09111328 6.98779297 -1.09433594 6.13378906 -1.09765625 5.25390625 C-1.10551147 4.06776733 -1.10551147 4.06776733 -1.11352539 2.85766602 C-1 1 -1 1 0 0 Z " fill="#2B76CA" transform="translate(632,150)"/>
<path d="M0 0 C2.5 1.625 2.5 1.625 4 4 C4.33 5.98 4.66 7.96 5 10 C0.05 10 -4.9 10 -10 10 C-9.34 11.32 -8.68 12.64 -8 14 C-4.43793339 14.81870185 -4.43793339 14.81870185 -1 15 C-0.67 14.01 -0.34 13.02 0 12 C1.32 12 2.64 12 4 12 C3.64393309 14.58148508 3.16671807 15.82045747 1.375 17.75 C-1.97963578 19.51559778 -4.25822943 19.45951568 -8 19 C-10.875 17.5625 -10.875 17.5625 -13 15 C-14.3222751 10.62506511 -14.52948402 7.21024919 -12.6875 3 C-9.30805558 -1.00526747 -4.91273721 -0.6206483 0 0 Z M-8.8125 4.375 C-10.1966722 5.93368783 -10.1966722 5.93368783 -10 8 C-6.7 8 -3.4 8 0 8 C-0.57125354 4.25724788 -0.57125354 4.25724788 -2 3 C-4.92728993 2.69186422 -6.42560445 2.56425165 -8.8125 4.375 Z " fill="#1D6FCB" transform="translate(458,151)"/>
<path d="M0 0 C1.32 0 2.64 0 4 0 C4.33 0.66 4.66 1.32 5 2 C5.99 1.34 6.98 0.68 8 0 C14.15177003 0.21970607 14.15177003 0.21970607 16.70703125 2.5703125 C18.49784431 5.93552616 18.32415387 9.04282572 18.1875 12.75 C18.16719727 13.79607422 18.16719727 13.79607422 18.14648438 14.86328125 C18.1112945 16.57585541 18.05749155 18.28802941 18 20 C16.68 20 15.36 20 14 20 C13.95101562 19.16855469 13.90203125 18.33710938 13.8515625 17.48046875 C13.77679687 16.39378906 13.70203125 15.30710938 13.625 14.1875 C13.55539062 13.10855469 13.48578125 12.02960938 13.4140625 10.91796875 C13.18804267 7.81373814 13.18804267 7.81373814 11 5 C9.02 5 7.04 5 5 5 C4.67 9.95 4.34 14.9 4 20 C2.68 20 1.36 20 0 20 C0 13.4 0 6.8 0 0 Z " fill="#2171CB" transform="translate(794,150)"/>
<path d="M0 0 C4.62 0 9.24 0 14 0 C14 0.99 14 1.98 14 3 C10.7 3 7.4 3 4 3 C4 5.31 4 7.62 4 10 C6.97 10 9.94 10 13 10 C13 10.99 13 11.98 13 13 C10.03 13 7.06 13 4 13 C4 15.31 4 17.62 4 20 C7.3 20 10.6 20 14 20 C14 21.32 14 22.64 14 24 C9.38 24 4.76 24 0 24 C0 16.08 0 8.16 0 0 Z " fill="#1A6ECC" transform="translate(303,146)"/>
<path d="M0 0 C4 4.8 4 4.8 4 7 C2.35 7 0.7 7 -1 7 C-1.33 6.01 -1.66 5.02 -2 4 C-4.31 4.33 -6.62 4.66 -9 5 C-9.93380961 9.53140653 -9.93380961 9.53140653 -9 14 C-6.08365871 14.2502157 -6.08365871 14.2502157 -3 14 C-2.34 13.01 -1.68 12.02 -1 11 C0.32 11 1.64 11 3 11 C2.68306247 13.93167219 2.36774166 15.58982661 0.375 17.8125 C-2.91148074 19.45574037 -5.37017617 19.32409141 -9 19 C-12.38031589 17.81232145 -12.93216817 17.10174775 -15 14 C-15.73446576 9.43948005 -15.59262059 5.98088926 -13.1875 2 C-9.27000445 -1.58171022 -4.90547075 -1.64831713 0 0 Z " fill="#2673CA" transform="translate(674,151)"/>
<path d="M0 0 C1.9375 1.9375 1.9375 1.9375 3 4 C3 4.66 3 5.32 3 6 C-0.8063457 5.32829194 -4.35206816 4.27253436 -8 3 C-7.33772394 6.11103016 -7.33772394 6.11103016 -4.96875 7.1328125 C-4.1540625 7.46023437 -3.339375 7.78765625 -2.5 8.125 C1.93582888 9.93582888 1.93582888 9.93582888 3 11 C3.28417861 13.69969684 3.32477191 15.41135091 2 17.8125 C-1.18622167 19.70431912 -4.44302719 19.52960963 -8 19 C-10.5 17.75 -10.5 17.75 -12 16 C-12 14.68 -12 13.36 -12 12 C-10.68 12 -9.36 12 -8 12 C-7.01 13.485 -7.01 13.485 -6 15 C-4.68 15 -3.36 15 -2 15 C-1.67 14.01 -1.34 13.02 -1 12 C-2.258125 11.731875 -3.51625 11.46375 -4.8125 11.1875 C-7.23856525 10.56917541 -8.89556895 10.06853288 -11 8.6875 C-12.45846447 6.22634121 -12.56020583 4.80102913 -12 2 C-8.10086581 -1.54466744 -4.9320889 -1.37002469 0 0 Z " fill="#2C76C9" transform="translate(508,151)"/>
<path d="M0 0 C1.17369141 -0.02513672 1.17369141 -0.02513672 2.37109375 -0.05078125 C5.08175408 0.39857955 5.90970635 1.15426487 7.5625 3.3125 C7.8925 4.3025 8.2225 5.2925 8.5625 6.3125 C6.9125 6.3125 5.2625 6.3125 3.5625 6.3125 C3.2325 5.6525 2.9025 4.9925 2.5625 4.3125 C0.03516765 3.65694881 0.03516765 3.65694881 -2.4375 3.3125 C-1.77522394 6.42353016 -1.77522394 6.42353016 0.59375 7.4453125 C1.4084375 7.77273437 2.223125 8.10015625 3.0625 8.4375 C7.49832888 10.24832888 7.49832888 10.24832888 8.5625 11.3125 C8.84667861 14.01219684 8.88727191 15.72385091 7.5625 18.125 C4.37913505 20.01512294 1.11691854 19.84888107 -2.4375 19.3125 C-4.9375 18 -4.9375 18 -6.4375 16.3125 C-6.4375 15.3225 -6.4375 14.3325 -6.4375 13.3125 C-2.87969804 13.92240891 0.2453589 14.8908681 3.5625 16.3125 C3.37516183 14.35088102 3.37516183 14.35088102 2.5625 12.3125 C0.71522433 11.18179556 0.71522433 11.18179556 -1.5 10.5625 C-2.23347656 10.32015625 -2.96695312 10.0778125 -3.72265625 9.828125 C-4.28855469 9.65796875 -4.85445313 9.4878125 -5.4375 9.3125 C-6.0625 5.9375 -6.0625 5.9375 -6.4375 2.3125 C-4.02263057 -0.10236943 -3.31042211 0.0163075 0 0 Z " fill="#2975CA" transform="translate(478.4375,150.6875)"/>
<path d="M0 0 C4.62 0 9.24 0 14 0 C14 1.32 14 2.64 14 4 C10.7 4 7.4 4 4 4 C4 6.31 4 8.62 4 11 C6.97 11 9.94 11 13 11 C13 11.99 13 12.98 13 14 C10.03 14 7.06 14 4 14 C4 17.63 4 21.26 4 25 C2.68 25 1.36 25 0 25 C0 16.75 0 8.5 0 0 Z " fill="#1D6FCB" transform="translate(535,145)"/>
<path d="M0 0 C1.32 0 2.64 0 4 0 C4 1.65 4 3.3 4 5 C5.65 5 7.3 5 9 5 C9 5.99 9 6.98 9 8 C7.35 8 5.7 8 4 8 C4.33 11.63 4.66 15.26 5 19 C6.32 19.33 7.64 19.66 9 20 C9 21.32 9 22.64 9 24 C3.55958549 24.3626943 3.55958549 24.3626943 1.3125 22.90625 C-0.64499078 20.06322767 -0.28856821 17.71512984 -0.1875 14.3125 C-0.16042969 13.13300781 -0.13335938 11.95351562 -0.10546875 10.73828125 C-0.07066406 9.83464844 -0.03585937 8.93101562 0 8 C-0.99 8 -1.98 8 -3 8 C-3 7.01 -3 6.02 -3 5 C-2.01 5 -1.02 5 0 5 C0 3.35 0 1.7 0 0 Z " fill="#1A6ECC" transform="translate(1007,146)"/>
<path d="M0 0 C1.4540625 0.0309375 1.4540625 0.0309375 2.9375 0.0625 C2.9375 1.0525 2.9375 2.0425 2.9375 3.0625 C1.9475 3.3925 0.9575 3.7225 -0.0625 4.0625 C-0.3925 5.0525 -0.7225 6.0425 -1.0625 7.0625 C0.2575 7.0625 1.5775 7.0625 2.9375 7.0625 C2.9375 8.0525 2.9375 9.0425 2.9375 10.0625 C1.6175 10.0625 0.2975 10.0625 -1.0625 10.0625 C-1.0625 15.3425 -1.0625 20.6225 -1.0625 26.0625 C-2.3825 26.0625 -3.7025 26.0625 -5.0625 26.0625 C-5.0625 20.7825 -5.0625 15.5025 -5.0625 10.0625 C-6.0525 10.0625 -7.0425 10.0625 -8.0625 10.0625 C-8.0625 9.0725 -8.0625 8.0825 -8.0625 7.0625 C-7.0725 7.0625 -6.0825 7.0625 -5.0625 7.0625 C-4.918125 6.093125 -4.77375 5.12375 -4.625 4.125 C-3.88189799 0.07922241 -3.88189799 0.07922241 0 0 Z " fill="#186DCC" transform="translate(351.0625,143.9375)"/>
<path d="M0 0 C1.4540625 0.0309375 1.4540625 0.0309375 2.9375 0.0625 C2.9375 1.0525 2.9375 2.0425 2.9375 3.0625 C1.9475 3.3925 0.9575 3.7225 -0.0625 4.0625 C-0.3925 5.0525 -0.7225 6.0425 -1.0625 7.0625 C0.2575 7.0625 1.5775 7.0625 2.9375 7.0625 C2.9375 8.0525 2.9375 9.0425 2.9375 10.0625 C1.6175 10.0625 0.2975 10.0625 -1.0625 10.0625 C-1.0625 15.3425 -1.0625 20.6225 -1.0625 26.0625 C-2.3825 26.0625 -3.7025 26.0625 -5.0625 26.0625 C-5.0625 20.7825 -5.0625 15.5025 -5.0625 10.0625 C-6.0525 10.0625 -7.0425 10.0625 -8.0625 10.0625 C-8.0625 9.0725 -8.0625 8.0825 -8.0625 7.0625 C-7.0725 7.0625 -6.0825 7.0625 -5.0625 7.0625 C-4.918125 6.093125 -4.77375 5.12375 -4.625 4.125 C-3.88189799 0.07922241 -3.88189799 0.07922241 0 0 Z " fill="#1A6ECC" transform="translate(333.0625,143.9375)"/>
<path d="M0 0 C1.32 0 2.64 0 4 0 C4 1.65 4 3.3 4 5 C5.32 5 6.64 5 8 5 C8 5.99 8 6.98 8 8 C6.68 8 5.36 8 4 8 C4.33 11.63 4.66 15.26 5 19 C6.32 19.33 7.64 19.66 9 20 C9 21.32 9 22.64 9 24 C2.25 23.25 2.25 23.25 0 21 C-0.1953125 17.9609375 -0.1953125 17.9609375 -0.125 14.375 C-0.10695313 13.18648437 -0.08890625 11.99796875 -0.0703125 10.7734375 C-0.04710937 9.85820312 -0.02390625 8.94296875 0 8 C-0.99 8 -1.98 8 -3 8 C-3 7.01 -3 6.02 -3 5 C-2.01 5 -1.02 5 0 5 C0 3.35 0 1.7 0 0 Z " fill="#176CCC" transform="translate(412,146)"/>
<path d="M0 0 C2.475 0.495 2.475 0.495 5 1 C8.22111592 0.61666338 8.22111592 0.61666338 11 0 C11 1.32 11 2.64 11 4 C9.02 4.33 7.04 4.66 5 5 C4.67 9.62 4.34 14.24 4 19 C2.68 19 1.36 19 0 19 C0 12.73 0 6.46 0 0 Z " fill="#1A6ECC" transform="translate(391,151)"/>
<path d="M0 0 C1.32 0 2.64 0 4 0 C4 8.58 4 17.16 4 26 C2.68 26 1.36 26 0 26 C0 17.42 0 8.84 0 0 Z " fill="#1C6FCB" transform="translate(430,144)"/>
<path d="M0 0 C1.32 0 2.64 0 4 0 C4 6.6 4 13.2 4 20 C2.68 20 1.36 20 0 20 C0 13.4 0 6.8 0 0 Z " fill="#1B6ECC" transform="translate(559,150)"/>
<path d="M0 0 C3.465 1.485 3.465 1.485 7 3 C7.1875 5.875 7.1875 5.875 7 9 C4 11 4 11 0 11 C0 7.37 0 3.74 0 0 Z " fill="#4FA6DE" transform="translate(57,166)"/>
<path d="M0 0 C1.32 0 2.64 0 4 0 C4 3.3 4 6.6 4 10 C-0.875 8.125 -0.875 8.125 -2 7 C-2.1875 4.5625 -2.1875 4.5625 -2 2 C-1.34 1.34 -0.68 0.68 0 0 Z " fill="#3FA7E7" transform="translate(50,149)"/>
<path d="M0 0 C1.32 0 2.64 0 4 0 C4.33 0.99 4.66 1.98 5 3 C3.125 4.0625 3.125 4.0625 1 5 C0.34 4.67 -0.32 4.34 -1 4 C-0.67 2.68 -0.34 1.36 0 0 Z " fill="#3279C9" transform="translate(559,143)"/>
</svg>
